<?xml version="1.0" encoding="UTF-8"?><svg width="293" height="279" viewBox="0 0 293 279" xmlns="http://www.w3.org/2000/svg" xmlns:xlink="http://www.w3.org/1999/xlink"><view id="best" viewBox="176.34 0 58 58"/><svg width="58" height="58" viewBox="-1 -1 58 58" x="176.34" xmlns="http://www.w3.org/2000/svg"><g fill="none" fill-rule="evenodd"><path fill="none" d="M0 0h56v56H0z"/><g fill-rule="nonzero"><path d="M38.039 44.66h10.09v7.005h-10.09zM7.771 41.156h10.09v10.51H7.77zM17.356 30.648H38.54l-1.513 3.002H18.869z" fill="#5CAD5C"/><path d="M17.882 52H8.16a.629.629 0 01-.632-.625V41.038a.629.629 0 01.631-.6c.338 0 .617.265.63.6v9.707h9.093c.338.013.605.29.605.625a.628.628 0 01-.605.626V52z" fill="#231F20"/><path fill="#3A843A" d="M17.882 41.038H6.042l-1.411-3.38h13.251"/><path d="M17.882 41.664H6.042a.63.63 0 01-.582-.386l-1.412-3.38a.622.622 0 01.058-.586.633.633 0 01.525-.278h13.251c.338.014.605.29.605.625a.628.628 0 01-.605.626H5.575l.888 2.128h11.42c.337.014.604.29.604.626a.628.628 0 01-.605.625z" fill="#231F20"/><path fill="#6DCC6D" d="M35.265 33.6v17.778H20.732V33.6"/><path d="M35.265 52H20.732a.628.628 0 01-.63-.625V33.6a.625.625 0 01.307-.563.636.636 0 01.646 0c.2.117.317.334.308.563v17.152h13.274V33.6a.625.625 0 01.307-.563.636.636 0 01.646 0c.2.117.318.334.308.563v17.778a.623.623 0 01-.187.441.633.633 0 01-.446.181zM47.845 52h-9.723a.628.628 0 01-.605-.626c0-.335.267-.611.605-.625h9.092v-6.222a.629.629 0 01.63-.6c.34 0 .617.265.631.6v6.848a.628.628 0 01-.63.625z" fill="#231F20"/><path d="M37.385 34.222h-18.77a.632.632 0 01-.583-.386l-1.411-3.38a.622.622 0 01.058-.586.633.633 0 01.525-.278h21.593c.21 0 .407.105.523.279.117.173.14.393.06.586l-1.412 3.379a.631.631 0 01-.583.386zm-18.35-1.251h17.929l.889-2.128H18.148l.888 2.128z" fill="#231F20"/><path fill="#3A843A" d="M38.117 41.038H51.37l-1.412 3.38h-11.84"/><path d="M49.958 45.043h-11.84a.628.628 0 01-.606-.625c0-.336.267-.612.605-.626h11.42l.889-2.128H38.117a.628.628 0 01-.605-.625c0-.336.267-.612.605-.626H51.37c.21 0 .408.104.525.278a.62.62 0 01.058.587l-1.411 3.38a.631.631 0 01-.583.385z" fill="#231F20"/><path d="M29.146 5.334l2.547 5.12c.186.374.546.634.962.693l5.699.822c.482.07.882.404 1.032.863.15.459.025.963-.323 1.3l-4.12 3.984a1.264 1.264 0 00-.369 1.123l.974 5.625c.082.476-.116.957-.51 1.241-.393.284-.916.321-1.346.096l-5.093-2.656a1.289 1.289 0 00-1.19 0l-5.093 2.656c-.43.225-.952.188-1.346-.096a1.264 1.264 0 01-.51-1.24l.968-5.626a1.264 1.264 0 00-.367-1.123l-4.12-3.984a1.261 1.261 0 01-.324-1.3c.15-.46.55-.794 1.032-.863l5.699-.822c.418-.058.78-.317.967-.693l2.547-5.12a1.28 1.28 0 011.142-.698c.483 0 .925.27 1.142.698z" fill="#F5C84C"/><path d="M21.716 26.972a1.918 1.918 0 01-1.458-.675 1.886 1.886 0 01-.422-1.54l.973-5.626a.637.637 0 00-.186-.57l-4.12-3.983a1.883 1.883 0 01-.484-1.942 1.904 1.904 0 011.542-1.288l5.698-.821a.645.645 0 00.489-.351l2.546-5.12A1.911 1.911 0 0128.006 4c.727 0 1.39.41 1.713 1.056l2.546 5.12c.094.19.277.32.488.35l5.693.822c.72.103 1.317.603 1.542 1.288a1.883 1.883 0 01-.484 1.942l-4.12 3.984a.637.637 0 00-.186.568l.973 5.627c.123.71-.171 1.429-.76 1.853a1.921 1.921 0 01-2.01.142l-5.093-2.656a.658.658 0 00-.603 0l-5.094 2.656a1.92 1.92 0 01-.895.22zM28 5.252a.636.636 0 00-.58.358l-2.547 5.12a1.91 1.91 0 01-1.437 1.036l-5.7.82a.644.644 0 00-.526.437.636.636 0 00.168.66l4.12 3.984c.45.435.656 1.062.55 1.677l-.968 5.625a.638.638 0 00.255.63.65.65 0 00.684.047l5.093-2.656a1.923 1.923 0 011.778 0l5.093 2.656a.65.65 0 00.683-.047c.2-.144.3-.389.256-.63l-.968-5.625a1.88 1.88 0 01.55-1.677l4.12-3.984a.636.636 0 00.167-.66.644.644 0 00-.526-.437l-5.7-.82a1.908 1.908 0 01-1.437-1.036l-2.546-5.12a.636.636 0 00-.583-.358H28z" fill="#231F20"/><g><path fill="#5CAD5C" d="M25.336 37.659h5.328v3.38h-5.328z"/><path d="M30.664 41.664h-5.328a.629.629 0 01-.63-.626V37.66c0-.345.282-.626.63-.626h5.328c.348 0 .63.28.63.626v3.378a.629.629 0 01-.63.626zm-4.697-1.251h4.067v-2.128h-4.067v2.128z" fill="#231F20"/></g><g fill="#231F20"><path d="M29.641 45.153H26.36a.632.632 0 01-.568-.305.622.622 0 010-.64.632.632 0 01.568-.306h3.282c.338.014.605.29.605.626a.628.628 0 01-.605.625z"/></g><g fill="#231F20"><path d="M29.641 48.294H26.36a.632.632 0 01-.568-.305.622.622 0 010-.64.632.632 0 01.568-.306h3.282c.338.014.605.29.605.626a.628.628 0 01-.605.625z"/></g></g></g></svg><view id="best-best" viewBox="176.34 58 58 58"/><svg width="58" height="58" viewBox="-1 -1 58 58" x="176.34" y="58" xmlns="http://www.w3.org/2000/svg"><g fill="none" fill-rule="evenodd"><path fill="none" d="M0 0h56v56H0z"/><g fill-rule="nonzero"><path d="M27.397 32.92l8.97 18.465 3.79-6.142 7.221.791-9.583-19.704z" fill="#70D6F9"/><path d="M28.74 32.92l-8.97 18.465-3.79-6.142-7.22.791 9.583-19.704z" fill="#70D6F9"/><path d="M44.356 17.703a3.507 3.507 0 00-2.586-2.605 40.174 40.174 0 01-5.188-8.116c-2.452.864-5.176-.139-6.466-2.379a5.455 5.455 0 01-6.681.247c-1.118 2.33-3.76 3.53-6.271 2.85-.208 2.46-2.084 4.463-4.545 4.851a3.462 3.462 0 00-.03 3.652 3.5 3.5 0 00-2.36 2.698 3.474 3.474 0 001.266 3.342 3.47 3.47 0 00-1.004 3.427 3.506 3.506 0 002.56 2.51 40.216 40.216 0 015.188 8.115c2.453-.861 5.176.141 6.466 2.38a5.45 5.45 0 016.675-.246c1.119-2.33 3.761-3.53 6.272-2.85.207-2.46 2.083-4.464 4.544-4.851a3.464 3.464 0 00.032-3.653 3.5 3.5 0 002.36-2.698 3.474 3.474 0 00-1.268-3.342 3.469 3.469 0 001.036-3.332z" fill="#087EBF"/><path d="M25.271 39.333a9.055 9.055 0 00-7.356-2.516 7.104 7.104 0 00-5.065-4.665 4.066 4.066 0 01-.606-3.597 4.114 4.114 0 01-2.35-2.75 4.074 4.074 0 01.745-3.526 4.078 4.078 0 01-1.016-3.461 4.106 4.106 0 012.132-2.92c1.802-2.83 3.489-5.73 5.055-8.695a7.126 7.126 0 006.495-2.949A7.196 7.196 0 0030.22 4a7.148 7.148 0 006.697 2.465 7.114 7.114 0 005.07 4.664c.76 1.039.984 2.37.605 3.597 1.2.52 2.08 1.573 2.371 2.839A4.089 4.089 0 0144.196 21a4.078 4.078 0 011.016 3.46 4.106 4.106 0 01-2.132 2.921 124.03 124.03 0 00-5.055 8.694 7.138 7.138 0 00-6.496 2.95 5.708 5.708 0 00-6.25.307l-.008.001zm-3.34-3.622a.62.62 0 01.588.421 2.895 2.895 0 002.244 1.927 2.917 2.917 0 002.779-1.035.616.616 0 01.46-.23c.18-.009.354.062.476.193a2.917 2.917 0 002.85.822 2.886 2.886 0 002.086-2.091.618.618 0 01.343-.41.627.627 0 01.537.008c.95.474 2.086.395 2.96-.207a2.864 2.864 0 001.228-2.676.605.605 0 01.162-.485.58.58 0 01.475-.196 2.907 2.907 0 002.602-1.416c.54-.909.534-2.038-.016-2.94a.611.611 0 01.336-.901 2.884 2.884 0 001.945-2.222 2.862 2.862 0 00-1.045-2.754.614.614 0 01-.036-.93 2.856 2.856 0 00.83-2.823 2.886 2.886 0 00-2.112-2.067.62.62 0 01-.412-.34.61.61 0 01.008-.531 2.854 2.854 0 00-.21-2.935 2.913 2.913 0 00-2.706-1.215.624.624 0 01-.489-.16.612.612 0 01-.198-.47 2.869 2.869 0 00-1.429-2.58 2.924 2.924 0 00-2.968.016.626.626 0 01-.908-.333 2.895 2.895 0 00-2.243-1.926 2.917 2.917 0 00-2.78 1.035.62.62 0 01-.46.23.631.631 0 01-.476-.194 2.916 2.916 0 00-2.85-.823 2.885 2.885 0 00-2.086 2.092.618.618 0 01-.343.41.627.627 0 01-.537-.01 2.926 2.926 0 00-2.961.21 2.866 2.866 0 00-1.227 2.68.608.608 0 01-.16.484.65.65 0 01-.476.198 2.906 2.906 0 00-2.602 1.414 2.851 2.851 0 00.016 2.941.611.611 0 01-.336.9 2.884 2.884 0 00-1.945 2.223 2.862 2.862 0 001.045 2.754.613.613 0 01.037.928 2.857 2.857 0 00-.83 2.824 2.887 2.887 0 002.11 2.067.62.62 0 01.414.34.611.611 0 01-.009.533 2.854 2.854 0 00.213 2.93 2.913 2.913 0 002.7 1.216.625.625 0 01.488.16.613.613 0 01.2.471 2.869 2.869 0 001.428 2.579 2.924 2.924 0 002.968-.016.626.626 0 01.321-.09z" fill="#231F20"/><path d="M28.38 12.816l2.14 4.3c.158.313.46.53.81.581l4.788.69c.403.06.737.341.863.725.126.384.023.806-.267 1.09l-3.465 3.347a1.062 1.062 0 00-.31.943l.819 4.725c.067.399-.1.801-.43 1.039-.33.238-.767.27-1.13.084l-4.282-2.23a1.086 1.086 0 00-1 0l-4.283 2.23c-.362.187-.8.155-1.13-.083a1.063 1.063 0 01-.43-1.04l.818-4.725a1.055 1.055 0 00-.31-.943l-3.463-3.347a1.061 1.061 0 01-.268-1.09c.126-.383.46-.664.863-.725l4.788-.69c.35-.05.652-.268.809-.582l2.141-4.299c.183-.362.556-.59.964-.59.408 0 .782.228.964.59z" fill="#F5C84C"/><path d="M22.129 31.08c-.5-.001-.974-.22-1.295-.6a1.672 1.672 0 01-.375-1.367l.817-4.724a.444.444 0 00-.13-.398l-3.464-3.347a1.67 1.67 0 01-.43-1.722c.2-.608.73-1.052 1.369-1.144l4.789-.689a.454.454 0 00.342-.246l2.14-4.3a1.698 1.698 0 011.522-.935c.645 0 1.234.363 1.52.936l2.141 4.299a.454.454 0 00.342.246l4.788.69c.639.091 1.17.534 1.37 1.143a1.67 1.67 0 01-.43 1.722l-3.465 3.347a.45.45 0 00-.13.398l.818 4.725a1.674 1.674 0 01-.675 1.643 1.71 1.71 0 01-1.786.129l-4.282-2.23a.452.452 0 00-.423 0l-4.282 2.23a1.71 1.71 0 01-.791.194zm5.28-18.243a.442.442 0 00-.407.251l-2.141 4.3c-.248.495-.725.839-1.277.919l-4.789.689a.448.448 0 00-.252.768l3.466 3.346c.4.386.581.942.487 1.486l-.818 4.725c-.029.17.041.34.181.441.14.1.326.114.479.035l4.281-2.231a1.708 1.708 0 011.579 0l4.283 2.23c.153.08.338.067.478-.034a.448.448 0 00.18-.44l-.818-4.726a1.672 1.672 0 01.488-1.487l3.465-3.346a.448.448 0 00-.252-.767l-4.787-.69a1.696 1.696 0 01-1.277-.919l-2.141-4.299a.443.443 0 00-.408-.25zM36.368 52h-.028a.621.621 0 01-.53-.343l-4.998-10.1a.61.61 0 01.042-.613.623.623 0 011.074.071l4.5 9.094 3.2-5.187a.622.622 0 01.599-.29l6.097.668-5.113-10.332a.61.61 0 01.031-.623.623.623 0 011.083.082l5.611 11.337a.61.61 0 01-.05.625.628.628 0 01-.575.258l-6.829-.748-3.584 5.808a.623.623 0 01-.53.293zM19.632 52a.623.623 0 01-.53-.295l-3.585-5.808-6.829.748a.624.624 0 01-.575-.259.611.611 0 01-.05-.624l5.26-10.625a.623.623 0 011.073-.071.61.61 0 01.04.613l-4.76 9.62 6.097-.67a.623.623 0 01.598.291l3.201 5.187 4.496-9.093a.624.624 0 01.832-.281c.308.15.435.518.284.824l-4.998 10.1a.621.621 0 01-.53.342l-.024.001z" fill="#231F20"/><g fill="#231F20"><path d="M17.337 42.777a.622.622 0 01-.524-.288.61.61 0 01-.034-.594l1.108-2.28a.623.623 0 01.829-.288.613.613 0 01.29.821l-1.108 2.282a.621.621 0 01-.56.347z"/></g><g fill="#231F20"><path d="M38.797 42.649a.62.62 0 01-.56-.347l-1.05-2.154a.613.613 0 01.29-.821.623.623 0 01.83.287l1.048 2.154a.61.61 0 01-.033.594.621.621 0 01-.525.288v-.001z"/></g></g></g></svg><view id="bonuses" viewBox="0 162.73000000000002 58 58"/><svg width="58" height="58" viewBox="-1 -1 58 58" y="162.73000000000002" xmlns="http://www.w3.org/2000/svg"><g fill="none" fill-rule="evenodd"><path fill="none" d="M0 0h56v56H0z"/><g fill-rule="nonzero"><path d="M37.286 28a.348.348 0 000-.509.44.44 0 00-.204-.109l-3.484-.489a.388.388 0 01-.279-.2l-1.556-3.096a.362.362 0 00-.483-.164.361.361 0 00-.167.164l-1.558 3.096a.357.357 0 01-.279.2l-3.484.49a.377.377 0 00-.314.4.43.43 0 00.11.2l2.521 2.405a.344.344 0 01.111.309l-.594 3.405a.35.35 0 00.058.27.38.38 0 00.48.111l3.11-1.601a.359.359 0 01.334 0l3.111 1.602c.18.088.396.024.498-.145a.342.342 0 00.037-.237l-.593-3.405a.33.33 0 01.11-.31l2.515-2.386z" fill="#FFCD29"/><path d="M42.552 28.346a.229.229 0 000-.327.457.457 0 00-.124-.073l-2.263-.328a.268.268 0 01-.185-.122l-.995-2.003a.251.251 0 00-.315-.11.164.164 0 00-.111.11l-.995 2.003a.235.235 0 01-.167.122.334.334 0 01-.092.383l-1.335 1.274.65.62a.273.273 0 01.074.2l-.39 2.2a.245.245 0 00.186.274.36.36 0 00.148-.018l2.02-1.038a.24.24 0 01.223 0l2.021 1.038a.239.239 0 00.315-.09.189.189 0 00.019-.146l-.39-2.2a.217.217 0 01.075-.2l1.631-1.569zM26.218 30.114a.215.215 0 01.075-.2l.65-.62-1.336-1.274a.362.362 0 01-.092-.382.235.235 0 01-.167-.123l-.995-2.003a.251.251 0 00-.316-.109.165.165 0 00-.111.11l-.996 2.002a.234.234 0 01-.185.123l-2.262.327a.245.245 0 00-.204.273.184.184 0 00.073.122l1.633 1.567a.27.27 0 01.074.2l-.389 2.2c-.013.06 0 .124.034.175.035.052.09.087.151.099.05.004.1-.002.148-.018l2.021-1.04a.24.24 0 01.223 0l2.02 1.04a.241.241 0 00.317-.092.191.191 0 00.018-.146l-.384-2.231z" fill="#FFAE2C"/><path d="M44.314 19.77H18.578a1.224 1.224 0 00-1.223 1.2v9.744h4.58l.11-.601a.215.215 0 00-.074-.2l-1.631-1.567a.229.229 0 010-.327.298.298 0 01.124-.073l2.262-.328a.266.266 0 00.186-.122l1.02-2.003a.251.251 0 01.316-.11.165.165 0 01.11.11l.996 2.003c.034.064.095.109.167.122a.34.34 0 01.298-.236l3.484-.489a.388.388 0 00.278-.2l1.558-3.096a.362.362 0 01.482-.164.361.361 0 01.166.164l1.558 3.096c.052.11.157.185.28.2l3.483.49a.39.39 0 01.298.235.235.235 0 00.166-.122l.996-2.003a.251.251 0 01.316-.11.165.165 0 01.11.11l.996 2.003a.234.234 0 00.185.122l2.263.328a.245.245 0 01.204.273.183.183 0 01-.075.123l-1.631 1.565a.27.27 0 00-.075.2l.39 2.2a.245.245 0 01-.186.274.368.368 0 01-.148-.018l-2.02-1.039a.241.241 0 00-.224 0l-2.02 1.039a.241.241 0 01-.316-.092.191.191 0 01-.019-.145l.39-2.2a.214.214 0 00-.075-.2l-.65-.62 1.335-1.275-2.52 2.404a.346.346 0 00-.113.31l.594 3.406a.35.35 0 01-.058.27.38.38 0 01-.48.111l-1.928-1.001v1.694c.004.527-.41.966-.946 1.002v12.589a.757.757 0 01-.76.746h13.226a1.224 1.224 0 001.223-1.201v-27.39a1.252 1.252 0 00-1.245-1.202h.003z" fill="#0084CB"/><path d="M24.103 22.429c0 .39-.24.743-.606.893a.996.996 0 01-1.072-.209.953.953 0 01-.214-1.052.983.983 0 01.909-.597c.542 0 .982.432.983.965zM40.754 22.429c0 .39-.239.743-.606.893a.996.996 0 01-1.072-.209.953.953 0 01-.213-1.052.983.983 0 01.908-.597c.542 0 .982.432.983.965z" fill="#E9E9EA"/><path d="M31.612 32.895a.362.362 0 00-.333 0l-3.111 1.603a.386.386 0 01-.498-.146.343.343 0 01-.037-.236l.593-3.406v-.014h-1.891l.277 1.602a.245.245 0 01-.185.274.362.362 0 01-.148-.019l-2.02-1.037a.241.241 0 00-.224 0l-2.02 1.056a.24.24 0 01-.315-.09.192.192 0 01-.019-.146l.279-1.603h-9.457c-.27 0-.53.105-.722.293a.99.99 0 00-.297.71v3.482c0 .265.107.52.298.708.191.188.45.293.721.293H31.79c.27 0 .53-.105.722-.292a.99.99 0 00.298-.71V33.52l-1.198-.624z" fill="#018ACE"/><path d="M31.724 36.211h-19.32V48.8a.757.757 0 00.76.747h17.948a.757.757 0 00.76-.747V36.21h-.148z" fill="#018ACE"/><path d="M22.008 32.568a.24.24 0 01-.314-.09.191.191 0 01-.019-.146l.279-1.602h-1.652v18.83h3.69V31.57l-1.984.998z" fill="#FFF"/><g fill="#231F20"><path d="M31.445 6a8.865 8.865 0 00-6.216 2.527 8.55 8.55 0 00-2.572 6.105v6.722a.454.454 0 00.224.415c.147.087.331.087.478 0a.454.454 0 00.225-.415v-6.722c0-4.264 3.52-7.721 7.861-7.721 4.342 0 7.862 3.457 7.862 7.721v6.722a.454.454 0 00.224.415c.147.087.331.087.478 0a.454.454 0 00.225-.415v-6.722a8.55 8.55 0 00-2.573-6.105A8.865 8.865 0 0031.445 6z"/><path d="M23.12 21.005c-.798 0-1.445.636-1.445 1.42 0 .784.647 1.42 1.446 1.42.798 0 1.446-.636 1.446-1.42a1.436 1.436 0 00-1.446-1.42zm0 1.93a.514.514 0 01-.518-.51c0-.281.232-.51.519-.51.286 0 .519.229.519.51a.504.504 0 01-.152.36.522.522 0 01-.367.15zM39.77 21.005c-.799 0-1.446.636-1.446 1.42 0 .784.647 1.42 1.446 1.42.798 0 1.446-.636 1.446-1.42a1.436 1.436 0 00-1.446-1.42zm0 1.93a.524.524 0 01-.367-.15.505.505 0 01-.152-.36.522.522 0 01.886-.36.504.504 0 01.152.36.494.494 0 01-.149.364.513.513 0 01-.37.146zM32.17 35.868a.452.452 0 00-.374-.109H12.422a.453.453 0 00-.337.115.436.436 0 00-.144.321V48.8c.006.66.55 1.195 1.223 1.201h17.948c.675 0 1.223-.538 1.223-1.201V36.21a.607.607 0 00-.167-.346l.001.004zm-.78 12.93a.285.285 0 01-.086.208.295.295 0 01-.21.084H13.145a.295.295 0 01-.21-.085.285.285 0 01-.086-.206v-12.13h18.522l.019 12.13z"/><path d="M24.216 31.169a.466.466 0 00-.463-.019l-1.558.802.204-1.166a.46.46 0 00-.373-.528H20.3a.464.464 0 00-.328.132.447.447 0 00-.135.323v18.83a.447.447 0 00.134.323.464.464 0 00.33.133h3.689a.464.464 0 00.328-.133.447.447 0 00.135-.323V31.55a.504.504 0 00-.242-.382h.004zm-.704 17.92h-2.763v-17.92h.631l-.185 1.074a.676.676 0 00.115.52.7.7 0 00.46.282.748.748 0 00.445-.074l1.298-.673-.001 16.79zM28.442 30.077l-1.188-1.13a.49.49 0 00-.65 0l-.647.62a.693.693 0 00-.204.619l.11.601a.46.46 0 00.464.383h1.907a.46.46 0 00.464-.401.883.883 0 00-.26-.692h.004zm-1.725.182l-.019-.109.242-.237.352.346h-.575z"/><path d="M44.313 19.313H18.578c-.93.004-1.684.744-1.687 1.658v9.743a.447.447 0 00.134.323.463.463 0 00.33.132h4.58a.474.474 0 00.464-.383l.11-.601a.712.712 0 00-.203-.619l-1.298-1.256 1.798-.256a.77.77 0 00.538-.382l.816-1.602.815 1.602a.699.699 0 00.483.366.463.463 0 00.497-.237l3.43-.488c.271-.036.507-.2.632-.438l1.464-2.914 1.465 2.914c.125.238.36.402.63.438l3.283.473-2.373 2.276c-.2.19-.29.465-.241.734L34.801 34l-1.762-.91a.485.485 0 00-.63.182.482.482 0 00-.055.219v1.694a.546.546 0 01-.52.546.46.46 0 00-.426.456v12.588a.286.286 0 01-.086.208.296.296 0 01-.21.084.46.46 0 00-.44.456.46.46 0 00.44.455h13.2c.931-.003 1.685-.743 1.688-1.657V20.97c-.003-.914-.757-1.654-1.687-1.658zM37.6 28.328c.103-.1.149-.243.124-.382a.614.614 0 00.204-.237l.817-1.603.816 1.603c.1.202.293.345.519.382l1.8.255-1.299 1.257a.694.694 0 00-.204.62l.315 1.766-1.618-.838a.684.684 0 00-.648 0l-1.617.838.314-1.766a.661.661 0 00-.204-.602l-.315-.29.996-1.003zm7.466 20.015a.727.727 0 01-.219.532.754.754 0 01-.542.215H32.291c.023-.096.036-.193.038-.291v-12.24c.562-.231.933-.767.945-1.366v-.947l1.245.638c.194.099.42.118.629.053a.821.821 0 00.483-.399.711.711 0 00.075-.51l-.594-3.35.817-.784.24.237-.374 2.095a.7.7 0 00.575.801.747.747 0 00.446-.073l1.91-.978 1.91.978a.704.704 0 00.535.05.69.69 0 00.41-.34.712.712 0 00.074-.438l-.373-2.095 1.557-1.475a.678.678 0 00-.389-1.166l-2.133-.31-.964-1.912a.682.682 0 00-.631-.383.702.702 0 00-.63.383l-.853 1.694c-.038-.019-.092-.019-.125-.037l-3.43-.489-1.54-3.04a.838.838 0 00-1.485 0l-1.54 3.04-3.43.49a.348.348 0 00-.124.036l-.853-1.694a.682.682 0 00-.63-.383.702.702 0 00-.631.383l-.965 1.913-2.151.309a.698.698 0 00-.465.269.698.698 0 00.075.915l1.558 1.475-.018.109h-3.671v-9.289a.727.727 0 01.218-.532.754.754 0 01.542-.215H44.31a.754.754 0 01.542.215c.143.141.222.333.218.532l-.002 27.374z"/><path d="M33.003 33.118l-1.187-.62a.84.84 0 00-.779 0l-2.93 1.512.556-3.204v-.074a.436.436 0 00-.118-.331.453.453 0 00-.327-.142h-1.91a.464.464 0 00-.329.132.447.447 0 00-.134.323v.073l.204 1.166-1.618-.837a.681.681 0 00-.65 0l-1.617.837.204-1.166a.459.459 0 00-.373-.528h-9.512c-.817.006-1.478.655-1.483 1.457v3.478c.005.803.666 1.452 1.483 1.457H31.77c.817-.005 1.478-.654 1.483-1.457v-1.692a.43.43 0 00-.26-.383l.01-.001zm-.667 2.095c0 .301-.25.545-.556.546H12.493a.553.553 0 01-.556-.546v-3.479c0-.301.25-.545.556-.546h8.9l-.186 1.074a.676.676 0 00.116.52.7.7 0 00.459.282.747.747 0 00.445-.073l1.91-.978 1.91.978a.703.703 0 00.536.05.689.689 0 00.41-.341.711.711 0 00.075-.438l-.186-1.074h.798l-.498 2.877a.834.834 0 00.687.947.724.724 0 00.519-.091l3.06-1.59.89.457-.002 1.425z"/><path d="M37.825 27.491a.797.797 0 00-.667-.546l-3.43-.49-1.54-3.04a.838.838 0 00-1.486 0l-1.539 3.04-3.43.49a.837.837 0 00-.705.929.78.78 0 00.242.472l2.488 2.368-.593 3.351a.833.833 0 00.685.947.83.83 0 00.52-.072l3.06-1.589 3.059 1.59a.823.823 0 00.63.059.806.806 0 00.482-.406.713.713 0 00.075-.51l-.594-3.35 2.489-2.368a.824.824 0 00.26-.874l-.006-.001zm-3.375 2.604a.81.81 0 00-.241.734l.556 3.206-2.935-1.518a.842.842 0 00-.78 0l-2.928 1.511.556-3.205a.827.827 0 00-.241-.734l-2.373-2.277 3.282-.473c.27-.035.505-.199.63-.437l1.464-2.914 1.465 2.914c.125.238.36.402.63.437l3.282.473-2.367 2.283z"/><path d="M43.052 27.964a.674.674 0 00-.575-.473l-2.132-.31-.965-1.913a.682.682 0 00-.63-.383.702.702 0 00-.631.383l-.965 1.93a.45.45 0 00-.241.51l-1.298 1.239a.436.436 0 000 .638l.575.546-.373 2.095a.676.676 0 00.115.52.7.7 0 00.46.281.746.746 0 00.444-.073l1.91-.978 1.91.978a.703.703 0 00.535.05.689.689 0 00.41-.34.712.712 0 00.075-.438l-.373-2.095 1.556-1.475a.64.64 0 00.186-.692h.007zm-2.466 1.62a.694.694 0 00-.204.62l.315 1.766-1.618-.837a.684.684 0 00-.648 0l-1.618.837.316-1.766a.661.661 0 00-.204-.601l-.315-.291.996-.947a.83.83 0 00.24-.49.389.389 0 00.092-.144l.816-1.603.817 1.603c.099.202.292.345.519.382l1.798.254-1.302 1.218zM27.404 29.275a.452.452 0 00-.148-.327l-1.298-1.238a.45.45 0 00-.242-.51l-.964-1.931a.707.707 0 00-.63-.381.707.707 0 00-.63.381l-.965 1.913-2.136.309a.698.698 0 00-.464.269.698.698 0 00.075.914l1.557 1.475-.373 2.095a.676.676 0 00.116.52.7.7 0 00.459.282.75.75 0 00.445-.074l1.909-.977 1.91.977a.703.703 0 00.535.05.689.689 0 00.41-.34.712.712 0 00.075-.438l-.373-2.095.575-.546a.423.423 0 00.148-.328h.009zm-1.632.91l.315 1.768-1.617-.837a.681.681 0 00-.649 0l-1.617.837.315-1.767a.71.71 0 00-.204-.619l-1.302-1.257 1.798-.256a.77.77 0 00.538-.382l.816-1.602.815 1.602c.02.054.051.104.092.145a.835.835 0 00.241.49l.996.946-.316.291a.692.692 0 00-.223.638l.002.004z"/><path d="M25.958 27.745a.063.063 0 00-.019-.036.472.472 0 00-.612-.22.485.485 0 00-.241.584c0 .018.018.018.018.036 0 .019.019.019.019.037a.47.47 0 00.61.188.454.454 0 00.225-.589z"/><path d="M25.958 27.764v-.037a.465.465 0 00-.498-.382.462.462 0 00-.43.455v.109a.478.478 0 00.557.346.44.44 0 00.29-.169c.07-.091.1-.207.083-.32l-.002-.002zM37.564 27.49a.46.46 0 00-.353-.018.449.449 0 00-.258.237c0 .018-.02.018-.02.036a.462.462 0 00.237.593.478.478 0 00.618-.192c.018-.018.018-.055.037-.073a.512.512 0 00-.26-.583h-.001z"/><path d="M37.471 27.363a.477.477 0 00-.537.366v.037a.453.453 0 00.408.489.467.467 0 00.498-.346v-.115a.435.435 0 00-.373-.437l.004.006z"/></g></g></g></svg><view id="chat" viewBox="0 98.55 69.74 64.18"/><svg width="69.74" height="64.18" data-name="Componente 45 – 1" viewBox="-1 -1 69.74 64.18" y="98.55" xmlns="http://www.w3.org/2000/svg"><path d="M11.29 25.967h14.675a1.128 1.128 0 100-2.256H11.29a1.128 1.128 0 100 2.256zm0 0" data-name="Trazado 84"/><path d="M40.647 30.487H11.29a1.127 1.127 0 100 2.254h29.356a1.127 1.127 0 100-2.254zm0 0" data-name="Trazado 85"/><path d="M40.647 37.257H11.29a1.13 1.13 0 100 2.259h29.356a1.13 1.13 0 100-2.259zm0 0" data-name="Trazado 86"/><path d="M61.05.077L22.502 0a6.7 6.7 0 00-6.7 6.692v5.79l-9.113.017a6.7 6.7 0 00-6.692 6.7v23.865a6.7 6.7 0 006.692 6.7h6.859v11.291a1.134 1.134 0 00.721 1.053 1.119 1.119 0 001.24-.292l10.955-12.058 18.771-.077a6.7 6.7 0 006.7-6.693v-.127l5.937 6.534a1.147 1.147 0 00.839.369 1.17 1.17 0 00.4-.077 1.124 1.124 0 00.721-1.053V37.343h1.214a6.7 6.7 0 006.692-6.692V6.78a6.708 6.708 0 00-6.692-6.7zM49.672 42.985a4.442 4.442 0 01-4.437 4.439l-19.274.076a1.125 1.125 0 00-.831.37l-9.328 10.26v-9.5a1.129 1.129 0 00-1.13-1.131h-7.98a4.439 4.439 0 01-4.431-4.437V19.197a4.442 4.442 0 014.437-4.439l10.238-.022 28.3-.06a4.442 4.442 0 014.437 4.437zm15.805-12.343a4.441 4.441 0 01-4.431 4.438h-2.337a1.127 1.127 0 00-1.13 1.129v9.5l-5.645-6.208V19.115a6.7 6.7 0 00-6.7-6.692l-27.173.055V6.695a4.441 4.441 0 014.431-4.437l38.547.082h.006a4.442 4.442 0 014.437 4.439v23.865zm0 0" data-name="Trazado 87"/></svg><view id="checked" viewBox="143.82 140.44 14.76 14.76"/><svg width="14.76" height="14.76" viewBox="-1 -1 14.76 14.76" x="143.82" y="140.44" xmlns="http://www.w3.org/2000/svg"><defs><style>.aecls-1{fill:#13a08d}</style></defs><path id="aeChecked_Symbol" d="M391.731 756.879a6.354 6.354 0 00-2.322-2.321 6.421 6.421 0 00-6.4 0 6.352 6.352 0 00-2.321 2.321 6.384 6.384 0 1011.045 0zm-1.388 2.23l-4.509 4.51a.521.521 0 01-.382.157.515.515 0 01-.373-.157l-3.006-3.006a.508.508 0 01-.149-.373.517.517 0 01.149-.383l.757-.747a.522.522 0 01.739-.009l.009.009 1.876 1.877 3.389-3.38a.52.52 0 01.737-.01l.01.01.756.747a.519.519 0 01.15.383.51.51 0 01-.151.373z" class="aecls-1" data-name="Checked Symbol" transform="translate(-379.83 -753.703)"/></svg><view id="close" viewBox="140.82999999999998 37.5 27 29.58"/><svg width="27" height="29.58" viewBox="-1 -1 27 29.58" x="140.82999999999998" y="37.5" xmlns="http://www.w3.org/2000/svg"><defs><style>.afcls-1{fill:#008ac7}.afcls-2{fill:#fff;font-size:20px;font-weight:700;font-family:'Roboto Condensed',Arial Narrow,Arial,sans-serif}</style></defs><g id="afGrupo_186" data-name="Grupo 186" transform="translate(-157.161 -204.944)"><g id="afGrupo_161" data-name="Grupo 161" transform="translate(157 204.944)"><ellipse id="afElipse_3" cx="12.5" cy="13" class="afcls-1" data-name="Elipse 3" rx="12.5" ry="13" transform="translate(.161 1.58)"/><text id="afx" class="afcls-2" transform="translate(12.45 20)"><tspan x="-4.6" y="0">x</tspan></text></g></g></svg><view id="comparison" viewBox="58 162.73000000000002 58 58"/><svg width="58" height="58" viewBox="-1 -1 58 58" x="58" y="162.73000000000002" xmlns="http://www.w3.org/2000/svg"><g fill="none" fill-rule="evenodd"><path fill="none" d="M0 0h56v56H0z"/><g fill-rule="nonzero"><path d="M20.258 30.96a.704.704 0 01-.644-.418l-4.987-11.228L9.64 30.542a.704.704 0 01-1.286-.571l5.632-12.676a.704.704 0 011.286 0l5.632 12.676a.704.704 0 01-.642.989h-.003z" fill="#95A5A5"/><path d="M18.145 30.256h2.81c.39 0 .704.315.704.704v2.812a3.52 3.52 0 01-3.52 3.52h-7.033a3.52 3.52 0 01-3.52-3.515v-2.812a.704.704 0 01.704-.704l9.855-.005z" fill="#55ACD5"/><path d="M18.145 37.878h-7.04A4.106 4.106 0 017 33.772V30.96a1.29 1.29 0 011.289-1.29H20.96a1.29 1.29 0 011.289 1.29v2.812a4.11 4.11 0 01-4.105 4.106zM8.29 30.835a.12.12 0 00-.119.12v2.811c-.002.78.307 1.527.86 2.077a2.955 2.955 0 002.075.86h7.04a2.945 2.945 0 002.935-2.937v-2.811a.12.12 0 00-.119-.12H8.29z" fill="#231F20"/><path d="M21.666 30.965v2.812a3.52 3.52 0 01-3.52 3.521h-3.52a3.52 3.52 0 003.52-3.521v-2.812a.704.704 0 00-.704-.704h3.52a.704.704 0 01.704.704z" fill="#006891"/><path d="M18.146 37.878h-3.52v-1.17a2.945 2.945 0 002.935-2.936V30.96a.12.12 0 00-.119-.12v-1.17h3.52a1.29 1.29 0 011.289 1.29v2.812a4.11 4.11 0 01-4.105 4.106zm-.653-1.17h.653a2.945 2.945 0 002.935-2.936V30.96a.12.12 0 00-.119-.12h-2.236v2.932a4.095 4.095 0 01-1.233 2.941v-.005z" fill="#231F20"/><path d="M47.007 25.907a.704.704 0 01-.644-.418l-4.986-11.227-4.989 11.227a.704.704 0 01-1.286-.571l5.632-12.676a.704.704 0 011.286 0l5.632 12.676a.704.704 0 01-.642.99h-.003z" fill="#95A5A5"/><path d="M44.896 25.203h2.811c.389 0 .704.315.704.704v2.812a3.52 3.52 0 01-3.52 3.52h-7.04a3.52 3.52 0 01-3.52-3.52v-2.812c0-.389.315-.704.704-.704h9.861z" fill="#6DCC6D"/><path d="M44.896 32.825h-7.04a4.11 4.11 0 01-4.104-4.106v-2.812a1.29 1.29 0 011.289-1.29h12.67A1.29 1.29 0 0149 25.908v2.812a4.11 4.11 0 01-4.104 4.106zm-9.855-7.042a.12.12 0 00-.12.119v2.811a2.945 2.945 0 002.936 2.936h7.04a2.945 2.945 0 002.935-2.936v-2.811a.12.12 0 00-.12-.12H35.041z" fill="#231F20"/><path d="M48.415 25.912v2.812a3.52 3.52 0 01-3.52 3.521h-3.52a3.52 3.52 0 003.52-3.52v-2.813a.704.704 0 00-.704-.704h3.52c.389 0 .704.315.704.704z" fill="#5A935A"/><path d="M44.895 32.825h-3.52v-1.17a2.945 2.945 0 002.935-2.936v-2.812a.12.12 0 00-.119-.12v-1.17h3.52A1.29 1.29 0 0149 25.908v2.812a4.11 4.11 0 01-4.105 4.106zm-.653-1.17h.653a2.945 2.945 0 002.935-2.936v-2.812a.12.12 0 00-.119-.12h-2.236v2.932a4.095 4.095 0 01-1.233 2.941v-.005z" fill="#231F20"/><path d="M28 7.571a1.455 1.455 0 011.409 1.497v34.417h-2.811V9.068a1.455 1.455 0 011.403-1.497z" fill="#006891"/><path d="M29.994 44.073h-3.986V9.068a1.995 1.995 0 113.986 0v35.005zm-2.811-1.17h1.646V9.068a.828.828 0 10-1.646 0v33.835z" fill="#231F20"/><path d="M28.954 11.548l9.636-2.053c.433-.09.885.026 1.22.316.238.209.693.55 1.024.487h.007c.396-.181.714-.499.896-.895.187-.402.552-.693.985-.786l3.442-.733a1.408 1.408 0 11.586 2.756l-2.837.604a4.185 4.185 0 01-2.487 1.811 3.665 3.665 0 01-2.884-.67l-20.767 4.419a3.666 3.666 0 01-2.362 1.785 4.185 4.185 0 01-3.007-.642l-2.838.604a1.408 1.408 0 11-.586-2.755l3.442-.733c.434-.09.885.026 1.22.316.327.289.747.45 1.183.454h.007c.329-.077.605-.575.737-.862.187-.401.551-.692.984-.786l12.399-2.637z" fill="#55ACD5"/><path d="M14.72 19.235a4.75 4.75 0 01-2.42-.669l-2.606.564a1.993 1.993 0 11-.83-3.9l3.443-.733a2.007 2.007 0 011.724.447c.19.17.43.276.683.304a1.76 1.76 0 00.331-.518c.265-.567.78-.978 1.39-1.111l22.036-4.686a2.007 2.007 0 011.724.447c.15.143.324.258.514.34.219-.128.393-.32.499-.552.265-.567.78-.979 1.392-1.114l3.445-.733a1.993 1.993 0 11.83 3.9l-2.606.554a4.753 4.753 0 01-2.697 1.845l-.038.008a4.26 4.26 0 01-3.12-.617L18.15 17.326a4.26 4.26 0 01-2.599 1.834l-.038.008a4.79 4.79 0 01-.793.067zm-2.191-1.907l.205.133c.755.503 1.673.701 2.568.555a3.088 3.088 0 001.967-1.496l.134-.231 21.28-4.533.213.16c.69.516 1.563.72 2.41.565a3.588 3.588 0 002.12-1.553l.133-.208 3.079-.655a.823.823 0 00-.343-1.606l-3.442.732a.835.835 0 00-.576.46c-.24.524-.66.943-1.183 1.182l-.059.026-.081.018a1.89 1.89 0 01-1.52-.621.836.836 0 00-.714-.185l-9.637 2.051-.121-.572.121.572-12.405 2.638a.837.837 0 00-.576.46c-.317.684-.698 1.083-1.133 1.185l-.075.016h-.071a2.4 2.4 0 01-1.565-.6.835.835 0 00-.713-.182l-3.441.733a.823.823 0 10.343 1.606l3.082-.65z" fill="#231F20"/><path d="M26.593 45.598h11.966c.389 0 .704.315.704.704v.704c0 .778-.63 1.409-1.408 1.409H18.146c-.778 0-1.408-.63-1.408-1.409v-.704c0-.389.315-.704.704-.704h9.15z" fill="#006891"/><path d="M37.857 49h-19.71a1.996 1.996 0 01-1.994-1.994v-.704a1.29 1.29 0 011.29-1.29H38.56a1.29 1.29 0 011.288 1.29v.704A1.996 1.996 0 0137.857 49zm-20.415-2.812a.12.12 0 00-.119.12v.704c0 .454.369.822.823.823h19.71a.825.825 0 00.824-.823v-.704a.12.12 0 00-.12-.12H17.443z" fill="#231F20"/><path d="M20.257 45.598a4.225 4.225 0 014.224-4.226h7.038a4.225 4.225 0 014.224 4.226H20.257z" fill="#55ACD5"/><path d="M36.328 46.183H19.672v-.585a4.82 4.82 0 014.809-4.81h7.038a4.82 4.82 0 014.81 4.81v.585zm-15.44-1.17h14.224a3.645 3.645 0 00-3.593-3.055h-7.038a3.645 3.645 0 00-3.593 3.055z" fill="#231F20"/><path d="M35.745 45.598h-2.811a4.225 4.225 0 00-4.224-4.226h2.81a4.225 4.225 0 014.225 4.226z" fill="#006891"/><path d="M36.33 46.183h-3.986v-.585a3.644 3.644 0 00-3.64-3.64v-1.17h2.811a4.82 4.82 0 014.81 4.81l.004.585zm-2.851-1.17h1.635a3.648 3.648 0 00-3.25-3.04 4.806 4.806 0 011.613 3.04h.002z" fill="#231F20"/></g></g></svg><view id="credit-card" viewBox="116 162.73000000000002 58 58"/><svg width="58" height="58" viewBox="-1 -1 58 58" x="116" y="162.73000000000002" xmlns="http://www.w3.org/2000/svg"><g fill="none" fill-rule="evenodd"><path fill="none" d="M0 0h56v56H0z"/><g fill-rule="nonzero"><path d="M42.682 18.978H6.622a2.164 2.164 0 00-2.153 2.163v21.23a2.164 2.164 0 002.153 2.162h36.06a2.164 2.164 0 002.153-2.162V21.14a2.164 2.164 0 00-2.153-2.163z" fill="#EDF4FC"/><path fill="#3A70BF" d="M4.469 23.517h40.367v4.757H4.47z"/><path d="M33.412 38.129a3.317 3.317 0 011.45-2.752 3.292 3.292 0 00-4.417.282 3.327 3.327 0 00-.17 4.442 3.292 3.292 0 004.385.62 3.312 3.312 0 01-1.252-2.597l.004.005z" fill="#EF4460"/><path d="M36.715 34.811a3.276 3.276 0 00-1.851.57 3.321 3.321 0 01-.203 5.345 3.29 3.29 0 003.92.143 3.324 3.324 0 001.29-3.72 3.304 3.304 0 00-3.158-2.335l.002-.003z" fill="#F5C84C"/><path d="M36.115 37.978c0-1.012-.46-1.97-1.251-2.597a3.321 3.321 0 00-.203 5.345 3.318 3.318 0 001.451-2.752l.003.004z" fill="#FC8C48"/><path d="M26.462 30.895H8.631a.353.353 0 00-.353.353v3.637c0 .195.158.353.353.353h17.831a.353.353 0 00.352-.353v-3.637a.353.353 0 00-.352-.353z" fill="#C7D7E5"/><path d="M49.374 12.47h-36.06a2.164 2.164 0 00-2.153 2.164v4.344h31.52c1.189.004 2.15.97 2.154 2.163v16.88h4.539a2.164 2.164 0 002.153-2.163V14.634a2.164 2.164 0 00-2.153-2.163z" fill="#3CAADC"/><path d="M49.375 12.47H21.579a18.135 18.135 0 00-.868 6.508h21.972c1.188.004 2.15.97 2.153 2.163V35.17a17.96 17.96 0 006.692-4.246v-16.29a2.164 2.164 0 00-2.153-2.163z" fill="#70D6F9"/><path d="M49.374 12.47H30.789c-.682 2.1-.83 4.337-.428 6.508h12.323c1.188.004 2.15.97 2.153 2.163v8.633a13.272 13.272 0 006.692-2.751V14.629a2.164 2.164 0 00-2.153-2.162l-.002.004z" fill="#087EBF"/><path d="M42.682 45H6.622A2.631 2.631 0 014 42.366V21.141a2.631 2.631 0 012.622-2.634h36.06a2.631 2.631 0 012.622 2.634v21.224A2.631 2.631 0 0142.682 45V45zM6.622 19.45a1.69 1.69 0 00-1.684 1.691v21.224a1.69 1.69 0 001.684 1.692h36.06a1.69 1.69 0 001.685-1.692V21.141a1.69 1.69 0 00-1.685-1.692H6.622z" fill="#000"/><path d="M20.068 38.65H8.23a.47.47 0 010-.942h11.837a.47.47 0 010 .941zM20.068 40.83H8.23a.47.47 0 010-.941h11.837a.47.47 0 010 .942zM21.254 33.537H10.751a.47.47 0 010-.941h10.503a.47.47 0 010 .941zM24.344 33.537h-.824a.47.47 0 010-.941h.824a.47.47 0 010 .941zM49.375 38.493h-4.538a.47.47 0 01-.468-.471V21.14a1.69 1.69 0 00-1.685-1.692h-31.52a.47.47 0 01-.47-.47v-4.345A2.631 2.631 0 0113.318 12h36.06A2.631 2.631 0 0152 14.634v21.225a2.631 2.631 0 01-2.622 2.634h-.003zm-4.07-.942h4.07a1.69 1.69 0 001.684-1.692V14.634a1.69 1.69 0 00-1.684-1.692h-36.06a1.69 1.69 0 00-1.685 1.692v3.872h31.054a2.631 2.631 0 012.622 2.634v16.41z" fill="#000"/><path d="M44.836 35.64a.47.47 0 01-.468-.47V21.141a1.69 1.69 0 00-1.685-1.692H20.71a.47.47 0 01-.468-.447 18.555 18.555 0 01.89-6.678.469.469 0 01.446-.324h27.796a2.631 2.631 0 012.622 2.634v16.291c0 .125-.05.245-.137.333a18.339 18.339 0 01-6.865 4.356.477.477 0 01-.158.027zM21.163 18.508h21.52a2.631 2.631 0 012.623 2.634v13.351a17.373 17.373 0 005.754-3.762V14.634a1.69 1.69 0 00-1.684-1.692H21.922a17.6 17.6 0 00-.76 5.566z" fill="#000"/><path d="M44.836 30.246a.47.47 0 01-.468-.47V21.14a1.69 1.69 0 00-1.685-1.692H30.36a.47.47 0 01-.46-.385 13.788 13.788 0 01.443-6.74.468.468 0 01.445-.324h18.585a2.631 2.631 0 012.622 2.634v12.394c0 .144-.067.28-.18.37a13.737 13.737 0 01-6.928 2.845h-.052v.003zm-14.08-11.739h11.926a2.631 2.631 0 012.622 2.634v8.096a12.816 12.816 0 005.754-2.442V14.634a1.69 1.69 0 00-1.684-1.692h-18.24a12.85 12.85 0 00-.377 5.566z" fill="#000"/><path d="M44.836 28.744H4.47a.47.47 0 01-.469-.47v-4.758c0-.26.21-.471.469-.471h40.367a.47.47 0 01.47.47v4.758c0 .26-.21.471-.47.471zm-39.898-.942h39.43v-3.815H4.938v3.815zM32.812 41.766a3.78 3.78 0 01-3.772-3.788 3.78 3.78 0 013.772-3.788 3.72 3.72 0 012.343.823.472.472 0 01-.028.758 2.848 2.848 0 00-.172 4.586.472.472 0 01-.028.759 3.744 3.744 0 01-2.114.651h-.001zm0-6.635c-1.143.001-2.174.691-2.614 1.75a2.856 2.856 0 00.6 3.098 2.826 2.826 0 003.076.639 3.797 3.797 0 01.196-5.19 2.787 2.787 0 00-1.258-.297z" fill="#000"/><path d="M36.716 41.916a3.724 3.724 0 01-2.344-.824.473.473 0 01.028-.758 2.848 2.848 0 00.172-4.586.472.472 0 01.028-.758 3.759 3.759 0 014.394.13 3.798 3.798 0 011.288 4.22 3.773 3.773 0 01-3.567 2.58v-.004zm-1.26-1.238a2.79 2.79 0 001.26.296 2.834 2.834 0 002.612-1.75 2.856 2.856 0 00-.6-3.097 2.826 2.826 0 00-3.075-.64 3.797 3.797 0 01-.197 5.19z" fill="#000"/><path d="M34.664 41.195a.47.47 0 01-.292-.102 3.793 3.793 0 01.229-6.101.467.467 0 01.555.021 3.792 3.792 0 01-.23 6.102.466.466 0 01-.262.08zm.177-5.197a2.848 2.848 0 00-.154 4.12 2.848 2.848 0 00.154-4.12zM26.463 35.71H8.632a.824.824 0 01-.821-.825v-3.637c0-.455.367-.824.82-.824h17.832c.453 0 .82.37.821.824v3.636a.824.824 0 01-.82.824v.001zm-17.715-.943h17.598v-3.402H8.748v3.402z" fill="#000"/></g></g></svg><view id="faq" viewBox="174 162.73000000000002 58 58"/><svg width="58" height="58" viewBox="-1 -1 58 58" x="174" y="162.73000000000002" xmlns="http://www.w3.org/2000/svg"><g fill="none" fill-rule="evenodd"><path fill="none" d="M0 0h56v56H0z"/><g fill-rule="nonzero"><rect width="39.612" height="30.394" rx="12.892" transform="translate(5.761 4.733)" fill="#5CAD5C"/><rect width="33.595" height="23.916" rx="10.144" transform="translate(8.77 7.972)" fill="#70D6F9"/><path d="M49.203 34.834l-.006.007c-.037-.043-.074-.086-.114-.126 0 0-3.936-3.795-5.724-5.182a4.395 4.395 0 00-.547-.377 2.049 2.049 0 00-2.407.375c-.425.403-.635.98-.568 1.558a2.316 2.316 0 00-3.22.06 2.328 2.328 0 01-1.056 2.374 2.36 2.36 0 01-2.612-.065 2.319 2.319 0 00-.49 2.627l-5.824-5.772a2.25 2.25 0 00-2.289-.89 2.235 2.235 0 00-1.736 1.728c-.18.869.174 1.76.903 2.272l10.197 10.11a52.406 52.406 0 00-2.193-1.032c-1.995-.876-3.955-.682-4.648.382-1.037 1.59 2.016 2.715 3.992 3.922 1.624.99 4.805 2.782 5.65 3.14 1.238.562 2.541.97 3.88 1.215a9.712 9.712 0 009.07-2.91c2.914-2.901 4.901-8.3-.258-13.416z" fill="#F9D0B4"/><path d="M42.418 51.995a10.631 10.631 0 01-2.154-.225c-1.38-.251-2.722-.671-3.997-1.252-.916-.387-4.172-2.23-5.733-3.182-.379-.232-.795-.458-1.236-.698-1.503-.818-2.926-1.59-3.214-2.72a1.698 1.698 0 01.26-1.373c.763-1.174 2.583-1.521 4.531-.943l-7.806-7.738a3.457 3.457 0 01-1.038-2.144 2.571 2.571 0 01.74-2.133 2.607 2.607 0 012.144-.74 3.51 3.51 0 012.16 1.025l4.623 4.587c.128-.544.407-1.04.805-1.435a2.986 2.986 0 012.874-.788c.102-.576.38-1.107.794-1.522a2.924 2.924 0 013.167-.649c.129-.368.343-.701.625-.972a2.666 2.666 0 013.185-.457l.085.054c.191.112.372.24.542.384 1.762 1.365 5.581 5.043 5.743 5.2l.082.086a9.976 9.976 0 013.383 8.075c-.718 5.314-5.174 9.348-10.565 9.565v-.005zm-13.332-9.426a1.976 1.976 0 00-1.69.653.464.464 0 00-.097.39c.155.604 1.51 1.341 2.6 1.933.435.237.886.481 1.288.728 1.658 1.013 4.772 2.763 5.567 3.094 1.188.54 2.438.934 3.721 1.173a9.159 9.159 0 008.539-2.734 9.15 9.15 0 002.717-5.495 8.629 8.629 0 00-2.908-6.972.599.599 0 01-.108-.093c-.027-.032-.055-.064-.085-.095-.03-.03-3.926-3.781-5.666-5.131a3.226 3.226 0 00-.412-.288l-.088-.055a1.435 1.435 0 00-1.629.295c-.293.273-.436.67-.383 1.066a.621.621 0 01-.345.606.629.629 0 01-.694-.092 1.693 1.693 0 00-2.362.033 1.7 1.7 0 00-.455 1.494.621.621 0 01-.284.615.63.63 0 01-.682-.006 1.763 1.763 0 00-2.114.087 1.736 1.736 0 00-.49 2.046.62.62 0 01-.216.768.629.629 0 01-.799-.074l-5.824-5.771a2.26 2.26 0 00-1.38-.668 1.454 1.454 0 00-1.152.38 1.408 1.408 0 00-.379 1.145c.056.522.295 1.007.675 1.37l10.197 10.111a.62.62 0 01.066.802.63.63 0 01-.785.198 63.8 63.8 0 00-2.17-1.022 5.503 5.503 0 00-2.173-.49z" fill="#231F20"/><path d="M20.185 35.571h-.027c-8.614-.397-15.338-7.546-15.154-16.113C5.187 10.891 12.21 4.032 20.834 4h9.074a15.937 15.937 0 0112.77 6.396 15.723 15.723 0 011.856 15.59.629.629 0 01-1.088.14.62.62 0 01-.065-.629 14.477 14.477 0 00-1.26-13.723 14.672 14.672 0 00-12.213-6.528h-9.074c-7.958.008-14.452 6.332-14.622 14.238-.17 7.907 6.048 14.5 13.999 14.845.336.019.598.3.59.634a.625.625 0 01-.616.61v-.002z" fill="#231F20"/><path d="M20.307 32.653h-.027c-7.04-.299-12.547-6.135-12.397-13.135.15-7 5.904-12.597 12.95-12.597h9.076a12.99 12.99 0 0110.407 5.215 12.815 12.815 0 011.513 12.703.629.629 0 01-1.088.14.62.62 0 01-.065-.628c.164-.38.308-.77.43-1.165a11.577 11.577 0 00-1.795-10.308 11.735 11.735 0 00-9.4-4.71h-9.076c-6.363 0-11.56 5.054-11.696 11.377-.136 6.322 4.838 11.592 11.196 11.863a.625.625 0 01.614.636.625.625 0 01-.64.61l-.002-.001z" fill="#231F20"/><path d="M25.279 22.943a.628.628 0 01-.627-.623v-.26a2.774 2.774 0 011.825-2.583 3.12 3.12 0 002.04-2.972 3.21 3.21 0 00-3.144-3.019 3.293 3.293 0 00-2.48 1.007 3.101 3.101 0 00-.698 1.152.628.628 0 01-.792.395.622.622 0 01-.398-.787 4.368 4.368 0 01.979-1.617 4.563 4.563 0 013.423-1.394c2.34.063 4.24 1.903 4.362 4.227a4.367 4.367 0 01-2.834 4.171 1.54 1.54 0 00-1.028 1.42v.26a.62.62 0 01-.628.623z" fill="#231F20"/><g fill="#231F20"><path d="M25.279 26.195a.628.628 0 01-.627-.623v-.13c0-.343.28-.622.627-.622.346 0 .627.279.627.623v.129a.62.62 0 01-.627.623z"/></g></g></g></svg><view id="list-icon" viewBox="159.51 67.08 16.64 11.41"/><svg width="16.64" height="11.41" viewBox="-1 -1 16.64 11.41" x="159.51" y="67.08" xmlns="http://www.w3.org/2000/svg"><defs><style>.ajcls-1{fill:none;stroke:#000;stroke-linecap:round;stroke-width:1.5px}</style></defs><g id="ajGrupo_152" data-name="Grupo 152" transform="translate(-95.25 -680.064)"><g id="ajGrupo_150" data-name="Grupo 150" transform="translate(99.164 680.814)"><path id="ajTrazado_302" d="M9640 678.814h9.972" class="ajcls-1" data-name="Trazado 302" transform="translate(-9640 -678.814)"/><path id="ajTrazado_303" d="M9640 678.814h9.972" class="ajcls-1" data-name="Trazado 303" transform="translate(-9640 -674.86)"/><path id="ajTrazado_304" d="M9640 678.814h9.972" class="ajcls-1" data-name="Trazado 304" transform="translate(-9640 -670.905)"/></g><g id="ajGrupo_151" data-name="Grupo 151" transform="translate(96 680.814)"><path id="ajTrazado_302-2" d="M9640 678.814h.161" class="ajcls-1" data-name="Trazado 302" transform="translate(-9640 -678.814)"/><path id="ajTrazado_303-2" d="M9640 678.814h.161" class="ajcls-1" data-name="Trazado 303" transform="translate(-9640 -674.86)"/><path id="ajTrazado_304-2" d="M9640 678.814h.161" class="ajcls-1" data-name="Trazado 304" transform="translate(-9640 -670.905)"/></g></g></svg><view id="mail" viewBox="74.24 37.5 66.59 48.29"/><svg width="66.59" height="48.29" data-name="Componente 47 – 1" viewBox="-1 -1 66.59 48.29" x="74.24" y="37.5" xmlns="http://www.w3.org/2000/svg"><path d="M0 0v46.285h64.587V0zm39.426 23.752l-5.867 5.887a1.863 1.863 0 01-2.507.032l-5.892-5.919.053-.053L3.926 2.155h56.75l-21.3 21.544zm-17.336-.037L2.154 42.901V3.684zm1.519 1.53l5.945 5.971a4 4 0 002.727 1.066 4.066 4.066 0 002.782-1.1l5.912-5.939 19.632 18.89H3.972zm18.885-1.524L62.43 3.684v39.217zm0 0" data-name="Trazado 92"/></svg><view id="opinion" viewBox="234.34 0 58 58"/><svg width="58" height="58" viewBox="-1 -1 58 58" x="234.34" xmlns="http://www.w3.org/2000/svg"><g fill="none" fill-rule="evenodd"><path fill="none" d="M0 0h56v56H0z"/><g fill-rule="nonzero"><path d="M24.664 9.593a8.404 8.404 0 00-10.91-.286 8.19 8.19 0 00-1.848 10.642c.085.15.092.332.018.488l-1.427 3.051a.535.535 0 00.246.698.49.49 0 00.446 0l3.083-1.411a.498.498 0 01.493.034c3.685 2.174 8.436 1.233 10.991-2.177a8.205 8.205 0 00-1.088-11.04h-.004z" fill="#55ACD5"/><path d="M46.458 47.112l-2.787-5.945a1.043 1.043 0 01.034-.941 15.904 15.904 0 00-.411-17.21c-3.498-5.172-9.704-7.876-15.922-6.937a8.2 8.2 0 01-2.715 5.714 8.375 8.375 0 01-6.006 2.132 8.268 8.268 0 01-2.608-.54 15.953 15.953 0 002.13 19.808c5.256 5.32 13.513 6.379 19.965 2.56.292-.181.658-.201.97-.053l6.008 2.758c.245.117.527.13.782.038s.462-.282.575-.526a.973.973 0 00-.018-.854l.003-.004z" fill="#6DCC6D"/><path d="M19.73 27.132h4.598a.39.39 0 01.388.384v11.507a.39.39 0 01-.388.384H19.73a.39.39 0 01-.388-.384V27.516a.39.39 0 01.388-.384zM26.478 27.865h-1.762v10.6h1.762a.39.39 0 00.388-.384v-9.85a.398.398 0 00-.388-.366z" fill="#F9D0B4"/><path d="M40.115 32.345a1.227 1.227 0 01-1.234-1.22c0-.675.553-1.221 1.234-1.221a1.207 1.207 0 00-.36-.865 1.233 1.233 0 00-.873-.355h-3.68c.6-1.766 1.481-3.26 1.251-4.48-.264-1.395-2.027-1.849-2.29-.541a13.477 13.477 0 01-2.22 3.73c-.617.611-.582 1.325-5.093 1.325v8.926h2.274a5.772 5.772 0 011.797.28l.951.295a5.196 5.196 0 001.638.261h5.392a2.716 2.716 0 011.233-3.661 1.207 1.207 0 00-.36-.865 1.233 1.233 0 00-.873-.355 1.268 1.268 0 001.215-1.256l-.002.002z" fill="#F9D0B4"/><path d="M19.73 27.132h4.598a.39.39 0 01.388.384v11.507a.39.39 0 01-.388.384H19.73a.39.39 0 01-.388-.384V27.516a.39.39 0 01.388-.384z" fill="#55ACD5"/><path d="M26.478 27.865h-1.762v10.6h1.762a.39.39 0 00.388-.384v-9.85a.398.398 0 00-.388-.366z" fill="#E9E9EA"/><path d="M40.115 32.345a1.227 1.227 0 01-1.234-1.22c0-.675.553-1.221 1.234-1.221a1.207 1.207 0 00-.36-.865 1.233 1.233 0 00-.873-.355h-3.68c.6-1.766 1.481-3.26 1.251-4.48-.264-1.395-2.027-1.849-2.29-.541a13.477 13.477 0 01-2.22 3.73c-.617.611-.582 1.325-5.093 1.325v8.926h2.274a5.772 5.772 0 011.797.28l.951.295a5.196 5.196 0 001.638.261h5.392a2.716 2.716 0 011.233-3.661 1.207 1.207 0 00-.36-.865 1.233 1.233 0 00-.873-.355 1.268 1.268 0 001.215-1.256l-.002.002z" fill="#F9D0B4"/><path d="M38.882 28.667h-2.414c-.681 0-1.234.547-1.234 1.22 0 .675.553 1.222 1.234 1.222h2.414c.681 0 1.234-.547 1.234-1.221s-.553-1.22-1.234-1.22zM38.882 31.125h-2.414c-.681 0-1.233.546-1.233 1.22 0 .674.552 1.22 1.233 1.22h2.414c.68 0 1.233-.546 1.233-1.22 0-.674-.552-1.22-1.233-1.22zM38.882 33.565h-2.414c-.681 0-1.233.547-1.233 1.22 0 .675.552 1.22 1.233 1.22h2.414c.68 0 1.233-.545 1.233-1.22 0-.673-.552-1.22-1.233-1.22zM38.882 36.024h-2.414c-.681 0-1.234.546-1.234 1.22 0 .674.553 1.221 1.234 1.221h2.414c.681 0 1.234-.547 1.234-1.22 0-.675-.553-1.221-1.234-1.221z" fill="#F9D0B4"/><path d="M24.328 26.697h-4.6a.83.83 0 00-.585.24.813.813 0 00-.241.58v11.506c0 .217.086.426.241.58a.83.83 0 00.586.239h4.616a.83.83 0 00.586-.24.813.813 0 00.242-.579V27.516a.85.85 0 00-.846-.82h.001zm-.053 12.256H19.78V27.568h4.492l.003 11.385z" fill="#231F20"/><path d="M26.478 27.43h-1.762a.44.44 0 00-.318.126.43.43 0 00-.128.315v10.6a.43.43 0 00.13.31.44.44 0 00.316.125h1.762c.22 0 .43-.086.585-.24a.813.813 0 00.242-.578v-9.851a.843.843 0 00-.827-.802v-.006zm-.07 10.6h-1.251V28.3h1.268v9.73h-.017z" fill="#231F20"/><path d="M40.01 31.125a1.653 1.653 0 00.437-1.829 1.682 1.682 0 00-1.564-1.066h-3.054c.112-.278.212-.54.317-.818a6.28 6.28 0 00.74-3.31 1.999 1.999 0 00-1.85-1.674 1.303 1.303 0 00-1.303 1.134 12.488 12.488 0 01-2.132 3.522c-.08.072-.152.154-.212.244-.388.453-.81.94-4.546.94a.438.438 0 00-.312.127.43.43 0 00-.128.31v8.926a.43.43 0 00.126.313c.083.083.196.13.314.128h2.274a5.306 5.306 0 011.656.262l.95.297c.57.18 1.164.273 1.762.278h5.392c.924 0 1.673-.741 1.673-1.655a3.986 3.986 0 01-.446-3.557l-.106-.105a1.628 1.628 0 00.106-2.336.76.76 0 00-.106-.121l.012-.01zm-1.127.436c.438 0 .793.351.793.784a.789.789 0 01-.793.785.443.443 0 00-.38.436c0 .218.162.404.38.436.438 0 .793.352.793.785a.789.789 0 01-.793.784.441.441 0 00-.381.218.432.432 0 000 .436.441.441 0 00.381.218c.438 0 .793.351.793.784a.789.789 0 01-.793.785h-5.395a4.87 4.87 0 01-1.498-.228l-.952-.295a6.475 6.475 0 00-1.92-.297h-1.83v-8.04c3.471-.035 4.16-.524 4.776-1.238.07-.07.122-.14.193-.21l.034-.035a13.238 13.238 0 002.308-3.922c.054-.28.194-.419.44-.419.51.064.914.456.989.96a5.893 5.893 0 01-.688 2.823c-.177.454-.37.925-.547 1.435-.069.23.054.474.281.558.046.014.093.02.14.018h3.666c.437 0 .792.35.792.784a.789.789 0 01-.792.784.438.438 0 00-.44.436c0 .24.196.436.44.436l.003-.001zM24.328 26.697h-4.6a.83.83 0 00-.585.24.813.813 0 00-.241.58v11.506c0 .217.086.426.241.58a.83.83 0 00.586.239h4.616a.83.83 0 00.586-.24.813.813 0 00.242-.579V27.516a.85.85 0 00-.846-.82h.001zm-.053 12.256H19.78V27.568h4.492l.003 11.385z" fill="#231F20"/><path d="M26.478 27.43h-1.762a.44.44 0 00-.318.126.43.43 0 00-.128.315v10.6a.43.43 0 00.13.31.44.44 0 00.316.125h1.762c.22 0 .43-.086.585-.24a.813.813 0 00.242-.578v-9.851a.843.843 0 00-.827-.802v-.006zm-.07 10.6h-1.251V28.3h1.268v9.73h-.017z" fill="#231F20"/><path d="M40.01 31.125a1.653 1.653 0 00.437-1.829 1.682 1.682 0 00-1.564-1.066h-3.054c.112-.278.212-.54.317-.818a6.28 6.28 0 00.74-3.31 1.999 1.999 0 00-1.85-1.674 1.303 1.303 0 00-1.303 1.134 12.488 12.488 0 01-2.132 3.522c-.08.072-.152.154-.212.244-.388.453-.81.94-4.546.94a.438.438 0 00-.312.127.43.43 0 00-.128.31v8.926a.43.43 0 00.126.313c.083.083.196.13.314.128h2.274a5.306 5.306 0 011.656.262l.95.297c.57.18 1.164.273 1.762.278h5.392c.924 0 1.673-.741 1.673-1.655a3.986 3.986 0 01-.446-3.557l-.106-.105a1.628 1.628 0 00.106-2.336.76.76 0 00-.106-.121l.012-.01zm-1.127.436c.438 0 .793.351.793.784a.789.789 0 01-.793.785.443.443 0 00-.38.436c0 .218.162.404.38.436.438 0 .793.352.793.785a.789.789 0 01-.793.784.441.441 0 00-.381.218.432.432 0 000 .436.441.441 0 00.381.218c.438 0 .793.351.793.784a.789.789 0 01-.793.785h-5.395a4.87 4.87 0 01-1.498-.228l-.952-.295a6.475 6.475 0 00-1.92-.297h-1.83v-8.04c3.471-.035 4.16-.524 4.776-1.238.07-.07.122-.14.193-.21l.034-.035a13.238 13.238 0 002.308-3.922c.054-.28.194-.419.44-.419.51.064.914.456.989.96a5.893 5.893 0 01-.688 2.823c-.177.454-.37.925-.547 1.435-.069.23.054.474.281.558.046.014.093.02.14.018h3.666c.437 0 .792.35.792.784a.789.789 0 01-.792.784.438.438 0 00-.44.436c0 .24.196.436.44.436l.003-.001z" fill="#231F20"/><path d="M35.64 28.598a.414.414 0 00-.178-.287.423.423 0 00-.334-.062.428.428 0 00-.286.178.419.419 0 00-.067.327c.018.087.335 2.302-2.453 3.662a.446.446 0 00-.194.593.437.437 0 00.6.191 4.554 4.554 0 002.906-4.602h.006z" fill="#231F20"/><path d="M38.882 28.23h-2.414c-.924 0-1.673.741-1.673 1.655s.75 1.655 1.673 1.655h2.414c.924 0 1.672-.741 1.672-1.655s-.748-1.655-1.672-1.655zm0 2.458h-2.414a.789.789 0 01-.793-.784c0-.433.355-.785.793-.785h2.414c.438 0 .793.352.793.785a.789.789 0 01-.793.784z" fill="#231F20"/><path d="M38.882 30.69h-2.414c-.924 0-1.673.74-1.673 1.654 0 .914.75 1.655 1.673 1.655h2.414c.924 0 1.672-.74 1.672-1.655 0-.914-.748-1.655-1.672-1.655zm0 2.44h-2.414a.789.789 0 01-.793-.785c0-.433.355-.784.793-.784h2.414c.438 0 .793.351.793.784a.789.789 0 01-.793.785z" fill="#231F20"/><path d="M38.882 33.13h-2.414c-.924 0-1.673.74-1.673 1.655 0 .914.75 1.654 1.673 1.654h2.414c.924 0 1.672-.74 1.672-1.654 0-.914-.748-1.655-1.672-1.655zm0 2.459h-2.414a.789.789 0 01-.793-.785c0-.433.355-.784.793-.784h2.414c.438 0 .793.351.793.784a.789.789 0 01-.793.785z" fill="#231F20"/><g fill="#231F20"><path d="M38.882 35.589h-2.414c-.924 0-1.673.74-1.673 1.655 0 .914.75 1.655 1.673 1.655h2.414c.924 0 1.672-.741 1.672-1.655s-.748-1.655-1.672-1.655zm0 2.44h-2.414a.789.789 0 01-.793-.784c0-.433.355-.785.793-.785h2.414c.438 0 .793.352.793.785a.789.789 0 01-.793.784zM24.963 9.263c-3.223-2.901-8.107-3.027-11.477-.295a8.628 8.628 0 00-1.967 11.192c.018.02.018.05 0 .07l-1.427 3.051a.94.94 0 00-.032.736.984.984 0 001.32.538l3.083-1.413a.078.078 0 01.088.018c3.875 2.296 8.878 1.31 11.568-2.28a8.626 8.626 0 00-1.155-11.616l-.001-.001zm-.317 11.96a7.955 7.955 0 01-9.638 1.186.953.953 0 00-.916-.053l-3.083 1.413a.112.112 0 01-.124-.035.054.054 0 010-.07l1.45-3.05a.937.937 0 00-.036-.889c-2.09-3.448-1.195-7.903 2.07-10.298 3.264-2.394 7.833-1.946 10.559 1.036a7.754 7.754 0 01-.015 10.5l-.264.262-.003-.002z"/><path d="M46.864 46.92l-2.787-5.945a.553.553 0 01.017-.523 16.35 16.35 0 00-.433-17.67c-3.59-5.31-9.956-8.091-16.34-7.139a.43.43 0 00-.37.418c-.216 4.309-3.91 7.635-8.265 7.445a7.628 7.628 0 01-2.484-.523.448.448 0 00-.528.174A16.38 16.38 0 0017.85 43.5c5.394 5.465 13.873 6.556 20.5 2.637a.59.59 0 01.563-.034l6.009 2.758c.193.09.403.137.616.14A1.466 1.466 0 0047 47.536a1.48 1.48 0 00-.14-.61l.004-.006zm-.917 1.029a.596.596 0 01-.669.121l-6.008-2.758a1.514 1.514 0 00-.617-.14 1.476 1.476 0 00-.78.21c-6.219 3.678-14.17 2.7-19.289-2.373a15.51 15.51 0 01-2.366-19.09c4.592 1.54 9.576-.895 11.135-5.438.23-.653.372-1.333.423-2.023 6.002-.766 11.919 1.933 15.229 6.946a15.476 15.476 0 01.311 16.59 1.45 1.45 0 00-.07 1.343l2.787 5.945a.523.523 0 01-.088.662l.002.005z"/></g><path d="M18.778 12.175h-3.241a.438.438 0 00-.44.435c0 .241.196.436.44.436h3.24c.244 0 .441-.195.441-.436a.438.438 0 00-.44-.435zM22.583 14.318h-7.048a.438.438 0 00-.44.436c0 .24.197.436.44.436h7.048c.243 0 .44-.195.44-.436a.438.438 0 00-.44-.436zM22.583 16.48h-7.048a.438.438 0 00-.44.436c0 .241.197.436.44.436h7.048c.243 0 .44-.195.44-.436a.438.438 0 00-.44-.435zM22.583 18.624h-7.048a.448.448 0 00-.444.195.437.437 0 000 .481c.096.147.27.223.444.196h7.048a.448.448 0 00.444-.196.437.437 0 000-.48.448.448 0 00-.444-.196z" fill="#231F20"/></g></g></svg><view id="phone" viewBox="69.74 98.55 58.62 59.75"/><svg id="amComponente_46_1" width="58.62" height="59.75" data-name="Componente 46 – 1" viewBox="-1 -1 58.62 59.75" x="69.74" y="98.55" xmlns="http://www.w3.org/2000/svg"><defs><clipPath id="amclip-path"><path id="amRectángulo_59" d="M0 0h56.618v57.75H0z" class="amcls-1" data-name="Rectángulo 59"/></clipPath><style>.amcls-1{fill:none}.amcls-2{clip-path:url(#amclip-path)}</style></defs><g id="amGrupo_36" data-name="Grupo 36"><g id="amGrupo_35" class="amcls-2" data-name="Grupo 35"><path id="amTrazado_88" d="M789.849 7279.039a4.635 4.635 0 00-3.511-.614 3.134 3.134 0 00-1.884 1.462 31.461 31.461 0 01-2.448 2.7c-2.234 1.511-4.012 1.335-5.939-.594l-10.837-10.838c-1.93-1.929-2.11-3.708-.6-5.939a32.06 32.06 0 012.709-2.447 3.142 3.142 0 001.46-1.885 4.68 4.68 0 00-.617-3.52c-.167-.281-4.045-6.861-7.63-8.754a4.63 4.63 0 00-5.47.824l-2.39 2.392c-6.986 6.984-5.695 15.661 3.737 25.088l13.877 13.879c4.28 4.284 8.432 6.915 12.331 7.814a13.428 13.428 0 003.04.358c3.506 0 6.764-1.483 9.717-4.436l2.391-2.393a4.628 4.628 0 00.825-5.469c-1.894-3.581-8.473-7.468-8.764-7.634zm6.607 11.767l-2.4 2.4c-6.2 6.2-13.739 4.939-22.421-3.741l-13.872-13.874c-8.682-8.68-9.939-16.223-3.742-22.421l2.4-2.4a2.741 2.741 0 013.248-.488c3.11 1.646 6.847 7.976 6.88 8.032a2.912 2.912 0 01.432 2.072 1.285 1.285 0 01-.645.788l-.143.1a28.092 28.092 0 00-3.118 2.89 7.763 7.763 0 00-1.167 2.515 13.389 13.389 0 01-1.386-4.608.951.951 0 00-1.041-.838.94.94 0 00-.839 1.037c.682 6.562 5.782 10.828 6 11.008a.359.359 0 00.077.046l10.012 10.013c.043.041.088.078.129.119a1.14 1.14 0 00.1.147 19.729 19.729 0 0010.947 4.986h.1a.945.945 0 00.1-1.885 16.712 16.712 0 01-5.238-1.469 7.991 7.991 0 002.2-1.083 27.529 27.529 0 002.888-3.12l.1-.143a1.286 1.286 0 01.793-.645 2.884 2.884 0 012.059.425c1.774 1.042 6.676 4.3 8.041 6.884a2.75 2.75 0 01-.484 3.252zm0 0" data-name="Trazado 88" transform="translate(-748.261 -7242.353)"/></g></g><path id="amTrazado_89" d="M780.739 7241.992a.944.944 0 100 1.888 28.94 28.94 0 0128.908 28.908.942.942 0 001.885 0 30.828 30.828 0 00-30.792-30.8zm0 0" data-name="Trazado 89" transform="translate(-754.918 -7241.07)"/><path id="amTrazado_90" d="M780.739 7252.286a22.3 22.3 0 0122.272 22.274.942.942 0 101.885 0 24.184 24.184 0 00-24.157-24.157.942.942 0 100 1.883zm0 0" data-name="Trazado 90" transform="translate(-754.918 -7242.845)"/><path id="amTrazado_91" d="M780.739 7260.7a15.656 15.656 0 0115.637 15.643.945.945 0 001.89 0 17.551 17.551 0 00-17.527-17.532.944.944 0 100 1.889zm0 0" data-name="Trazado 91" transform="translate(-754.918 -7244.62)"/></svg><view id="question" viewBox="151.07 114.22 17 17.06"/><svg width="17" height="17.06" viewBox="-1 -1 17 17.06" x="151.07" y="114.22" xmlns="http://www.w3.org/2000/svg"><defs><style>.ancls-1{fill:#008ac7}.ancls-2{fill:#fff;font-size:12px;font-weight:700;font-family:'Roboto Condensed',Arial Narrow,Arial,sans-serif}</style></defs><g id="anGrupo_39" data-name="Grupo 39" transform="translate(-1105 -249.944)"><circle id="anElipse_1" cx="7.5" cy="7.5" r="7.5" class="ancls-1" data-name="Elipse 1" transform="translate(1105 250)"/><text id="an_" class="ancls-2" data-name="?" transform="translate(1112.413 261.944)"><tspan x="-3.336" y="0">?</tspan></text></g></svg><view id="quotes" viewBox="0 37.5 74.24 61.05"/><svg id="aoComponente_41_1" width="74.24" height="61.05" data-name="Componente 41 – 1" viewBox="-1 -1 74.24 61.05" y="37.5" xmlns="http://www.w3.org/2000/svg"><defs><style>.aocls-1{fill:#efecec}</style></defs><g id="aoGrupo_32" data-name="Grupo 32"><path id="aoTrazado_83" d="M377.719 6401.239H408.1v27.232l-13.759 31.817h-12.9l8.313-28.665h-12.035zm41.851 0h30.384v27.232l-13.754 31.817h-12.9l8.312-28.665H419.57z" class="aocls-1" data-name="Trazado 83" transform="translate(-377.719 -6401.239)"/></g></svg><view id="remove" viewBox="128.35999999999999 140.44 15.46 15.46"/><svg width="15.46" height="15.46" viewBox="-1 -1 15.46 15.46" x="128.35999999999999" y="140.44" xmlns="http://www.w3.org/2000/svg"><defs><style>.apcls-1{fill:#f26c63}</style></defs><path id="apRemove_button" d="M676.667 673.475a6.731 6.731 0 106.73 6.732 6.731 6.731 0 00-6.73-6.732zm2.894 8.549l-1.072 1.071a24.712 24.712 0 00-1.825-1.82 25.3 25.3 0 00-1.826 1.82l-1.072-1.071a20.544 20.544 0 001.825-1.825 20.634 20.634 0 00-1.825-1.825l1.072-1.074s1.711 1.826 1.826 1.826 1.825-1.826 1.825-1.826l1.072 1.074a25.042 25.042 0 00-1.825 1.825 25.545 25.545 0 001.823 1.829z" class="apcls-1" data-name="Remove button" transform="translate(-669.935 -673.475)"/></svg><view id="reviews" viewBox="234.34 58 58 58"/><svg width="58" height="58" viewBox="-1 -1 58 58" x="234.34" y="58" xmlns="http://www.w3.org/2000/svg"><g fill="none" fill-rule="evenodd"><path fill="none" d="M0 0h56v56H0z"/><g fill-rule="nonzero"><path d="M23.139 19.563c-4.5.037-7.37.037-9.79.037l-.9.857a.142.142 0 00-.037.093l.431 2.495a.08.08 0 01-.007.076.082.082 0 01-.068.037.144.144 0 01-.075-.018l-2.25-1.174a.084.084 0 00-.094 0L8.08 23.158a.107.107 0 01-.13-.038c-.02-.018-.02-.037-.02-.074l.431-2.495c0-.037 0-.075-.037-.093l-.844-.837a3.705 3.705 0 00-3.01 3.666c.056 14.17 0 16.311 0 16.571.046 2.022 1.713 3.636 3.75 3.631l3.881-.018a1.35 1.35 0 011.125.596l2.213 3.295c.116.17.347.22.525.113a.64.64 0 00.113-.113l2.176-3.314a1.35 1.35 0 011.125-.596l3.881-.018c1.999-.022 3.601-1.647 3.582-3.631v-16.61c-.034-2.005-1.674-3.617-3.694-3.63h-.008z" fill="#018ACE"/><path d="M14.274 18.687a.112.112 0 000-.15c-.018-.017-.037-.017-.057-.037l-2.531-.371c-.038 0-.056-.019-.076-.056l-1.124-2.272a.104.104 0 00-.131-.055c-.018.018-.038.018-.056.055l-1.125 2.272c-.02.037-.037.056-.075.056l-2.532.371a.104.104 0 00-.093.113c0 .019.018.038.038.056l1.821 1.769a.142.142 0 01.038.093l-.432 2.514a.082.082 0 00.008.076c.015.022.04.036.067.037a.143.143 0 00.075-.018l2.27-1.174a.084.084 0 01.093 0l2.25 1.174a.114.114 0 00.132-.038c.018-.018.018-.037.018-.074l-.431-2.477c0-.037 0-.075.038-.093l1.815-1.771z" fill="#FFCD29"/><path d="M38.333 9.117a2.349 2.349 0 00-3.302.018.126.126 0 01-.187 0 2.346 2.346 0 00-3.302 0 2.307 2.307 0 000 3.278l.018.018 2.926 2.886a.658.658 0 00.938 0l2.906-2.905a2.301 2.301 0 000-3.295h.003z" fill="#018ACE"/><path d="M47.778 11.854c-4.032.037-6.769.037-9.038.037-.11.189-.242.364-.394.521l-2.906 2.905a.658.658 0 01-.938 0l-2.944-2.886a3.258 3.258 0 01-.243-.279A3.692 3.692 0 0029.1 15.56c.056 14.17 0 16.312 0 16.572.048 2.022 1.714 3.635 3.75 3.63l3.882-.017a1.35 1.35 0 011.125.596l2.213 3.278a.39.39 0 00.525.113.618.618 0 00.114-.113l2.175-3.295a1.35 1.35 0 011.125-.596l3.882-.018c2.019-.018 3.648-1.644 3.656-3.65V15.467c-.062-2.02-1.733-3.625-3.77-3.617v.005z" fill="#00407E"/><path d="M40.302 19.6l-6.976.038a.467.467 0 00-.469.465c0 .258.21.466.47.466l6.975-.037a.467.467 0 00.47-.466.467.467 0 00-.47-.466zM47.277 22.04l-13.933.056a.467.467 0 00-.469.466c0 .257.21.466.47.466l13.932-.057a.467.467 0 00.469-.466.467.467 0 00-.47-.465zM47.295 24.497l-13.932.056a.467.467 0 00-.47.465c0 .258.21.466.47.466l13.932-.055a.467.467 0 00.47-.466.467.467 0 00-.47-.466zM47.295 26.956l-13.932.056a.467.467 0 00-.47.466c0 .257.21.466.47.466l13.932-.057a.467.467 0 00.47-.465.467.467 0 00-.47-.466zM47.313 29.413l-13.932.056a.467.467 0 00-.47.466c0 .257.21.465.47.465l13.932-.055a.467.467 0 00.47-.466.467.467 0 00-.47-.466z" fill="#FFF"/><path d="M15.643 27.31H8.686a.467.467 0 00-.47.465c0 .258.21.466.47.466h6.957a.467.467 0 00.469-.466.467.467 0 00-.47-.465zM22.619 29.767H8.686a.467.467 0 00-.47.466c0 .257.21.466.47.466h13.933a.466.466 0 00.469-.466.474.474 0 00-.47-.466zM22.619 32.244H8.686a.467.467 0 00-.47.466c0 .257.21.465.47.465h13.933a.466.466 0 00.469-.465.474.474 0 00-.47-.466zM22.619 34.701H8.686a.467.467 0 00-.47.466c0 .257.21.466.47.466h13.933a.466.466 0 00.469-.466.475.475 0 00-.47-.466zM22.619 37.159H8.686a.467.467 0 00-.47.466c0 .257.21.465.47.465h13.933a.466.466 0 00.469-.465.474.474 0 00-.47-.466zM38.673 8.8a2.791 2.791 0 00-1.97-.8h-.018a10.067 10.067 0 01-5.475.838 2.76 2.76 0 00.018 3.929l2.944 2.886c.211.202.494.316.788.316.304.004.596-.119.806-.339l2.925-2.905a2.76 2.76 0 00-.018-3.93V8.8zm-.656 3.279l-2.888 2.905-.018.018a.205.205 0 01-.281 0l-2.926-2.886a1.847 1.847 0 01-.019-2.626 1.879 1.879 0 012.644-.018.614.614 0 00.844 0c.347-.347.82-.54 1.312-.54.495.003.97.2 1.317.55.349.349.543.821.54 1.312a1.72 1.72 0 01-.525 1.285z" fill="#231F20"/><path d="M47.8 11.389h-.02c-3.544.037-6.412.037-9.02.037a.466.466 0 00-.411.242c-.083.159-.19.303-.32.429l-2.905 2.923a.205.205 0 01-.282 0l-2.925-2.886a2.007 2.007 0 01-.188-.226.473.473 0 00-.562-.15 4.131 4.131 0 00-2.495 3.836c.019 5.697.038 13.165 0 16.367v.226c.062 2.266 1.919 4.077 4.201 4.097h.02l3.881-.018a.885.885 0 01.731.391l2.194 3.278a.836.836 0 00.712.372.876.876 0 00.713-.39l2.175-3.296a.883.883 0 01.731-.391l3.845-.037c2.279-.015 4.12-1.852 4.125-4.115V15.466c-.063-2.261-1.922-4.066-4.2-4.077zm3.262 20.687c.003 1.752-1.423 3.176-3.187 3.184l-3.882.02a1.798 1.798 0 00-1.5.819l-2.101 3.184-2.138-3.184c-.334-.5-.897-.8-1.5-.8l-3.882.017h-.018c-1.77-.006-3.216-1.407-3.263-3.165v-.204c.038-3.222.02-10.688 0-16.391a3.25 3.25 0 011.631-2.826l.038.037 2.944 2.886c.453.432 1.17.423 1.613-.02l2.869-2.904c.12-.118.227-.25.318-.392 2.55 0 5.345 0 8.776-.037h.02c1.77.006 3.215 1.408 3.262 3.165v16.61z" fill="#231F20"/><g fill="#231F20"><path d="M14.743 18.428a.595.595 0 00-.469-.391l-2.344-.34-1.05-2.104a.586.586 0 00-.768-.261.59.59 0 00-.263.261L8.8 17.698l-2.343.339a.577.577 0 00-.489.652.483.483 0 00.169.317l1.687 1.638-.394 2.31a.552.552 0 00.47.651c.12.02.246 0 .355-.055l2.081-1.099 2.081 1.099a.573.573 0 00.769-.242.59.59 0 00.057-.354l-.396-2.311 1.688-1.638a.464.464 0 00.206-.578l.003.001zm-2.625 1.696a.616.616 0 00-.168.503l.3 1.769-1.614-.838a.528.528 0 00-.525 0l-1.613.838.3-1.77a.563.563 0 00-.168-.502l-1.252-1.266 1.8-.261a.545.545 0 00.432-.317l.806-1.62.806 1.62a.587.587 0 00.432.317l1.8.26-1.336 1.267z"/><path d="M26.069 20.289a4.13 4.13 0 00-2.906-1.192h-.038c-4.988.038-7.855.038-9.79.038a.457.457 0 00-.319.13l-.9.856a.616.616 0 00-.169.503l.3 1.77-1.613-.838a.528.528 0 00-.525 0l-1.613.838.3-1.77a.563.563 0 00-.168-.503l-.863-.837a.486.486 0 00-.413-.131A4.19 4.19 0 004 23.287c.02 5.697.038 13.164 0 16.367v.226c.062 2.265 1.919 4.076 4.201 4.097h.018l3.882-.019a.884.884 0 01.73.392l2.195 3.278a.834.834 0 00.712.372.876.876 0 00.713-.391l2.175-3.296a.885.885 0 01.731-.39l3.882-.019c2.259-.034 4.067-1.871 4.05-4.115V23.194a4.102 4.102 0 00-1.219-2.905h-.001zm.281 19.495c.025 1.732-1.368 3.158-3.112 3.184l-3.882.018a1.8 1.8 0 00-1.5.82l-2.1 3.184-2.139-3.165c-.333-.5-.897-.8-1.5-.8l-3.882.018h-.023c-1.783 0-3.24-1.414-3.282-3.185v-.204c.038-3.222.02-10.688 0-16.391a3.234 3.234 0 012.401-3.147l.544.52-.393 2.31a.552.552 0 00.469.651c.121.02.246 0 .356-.055l2.082-1.099 2.08 1.1a.573.573 0 00.77-.243.59.59 0 00.056-.354l-.394-2.31.62-.595c1.935 0 4.763 0 9.6-.037h.02c1.762.004 3.192 1.415 3.207 3.165l.002 16.615z"/></g></g></g></svg><view id="row-up" viewBox="234.34 116 58 58"/><svg width="58" height="58" viewBox="-1 -1 58 58" x="234.34" y="116" xmlns="http://www.w3.org/2000/svg"><g fill="none" fill-rule="evenodd"><path fill="none" d="M0 0h56v56H0z"/><g fill-rule="nonzero"><g transform="translate(7 7)"><circle fill="#55ACD5" cx="21" cy="21" r="20.391"/><path d="M21 42C9.402 42 0 32.598 0 21S9.402 0 21 0s21 9.402 21 21c-.014 11.592-9.408 20.986-21 21zm0-40.782c-10.93 0-19.79 8.86-19.79 19.789 0 10.93 8.86 19.79 19.79 19.79s19.79-8.86 19.79-19.79C40.78 10.08 31.925 1.225 21 1.217z" fill="#000"/></g><path d="M38.556 26.207L28 15.907l-10.554 10.3h5.634V38.79c0 .712.578 1.29 1.29 1.29h7.248a1.29 1.29 0 001.29-1.29V26.207h5.648z" fill="#6DCC6D"/><path d="M31.625 40.695h-7.248a1.902 1.902 0 01-1.899-1.899V26.821h-5.03a.607.607 0 01-.426-1.043l10.555-10.299a.609.609 0 01.849 0L38.98 25.778a.607.607 0 01-.424 1.043h-5.031v11.97a1.902 1.902 0 01-1.9 1.904zM18.941 25.603h4.145a.607.607 0 01.608.61V38.79c0 .38.308.687.688.687h7.247c.38 0 .688-.308.688-.687V26.207a.607.607 0 01.607-.61h4.146l-9.06-8.84-9.07 8.846z" fill="#000"/></g></g></svg><view id="safe" viewBox="0 220.73000000000002 58 58"/><svg width="58" height="58" viewBox="-1 -1 58 58" y="220.73000000000002" xmlns="http://www.w3.org/2000/svg"><g fill="none" fill-rule="evenodd"><path fill="none" d="M0 0h56v56H0z"/><g fill-rule="nonzero"><rect width="36.803" height="28.445" rx="4.219" transform="translate(14.194 22.748)" fill="#55ACD5"/><path d="M46.25 52H20.316a.71.71 0 110-1.422H46.25a4.318 4.318 0 004.32-4.307V27.56a4.318 4.318 0 00-4.32-4.307H19.148a4.291 4.291 0 00-3.125 1.333.714.714 0 01-1.2-.291.71.71 0 01.169-.69 5.704 5.704 0 014.16-1.775h27.102c3.172.004 5.742 2.567 5.746 5.73v18.714c-.005 3.163-2.577 5.725-5.75 5.726z" fill="#231F20"/><path d="M21.1 22.538v-6.262c0-6.387 5.193-11.565 11.599-11.565 6.406 0 11.599 5.178 11.599 11.565v6.262h-4.609v-6.262c0-3.847-3.127-6.965-6.985-6.965-3.859 0-6.986 3.118-6.986 6.965v6.262H21.1z" fill="#6DCC6D"/><path d="M44.298 23.249h-4.609a.714.714 0 01-.713-.711v-6.262c0-3.454-2.808-6.253-6.272-6.253-3.464 0-6.272 2.8-6.272 6.253v6.262c0 .393-.32.711-.713.711h-4.62a.714.714 0 01-.713-.711v-6.262C20.386 9.496 25.9 4 32.7 4c6.8 0 12.312 5.496 12.312 12.276v6.262c0 .393-.32.711-.713.711zm-3.9-1.423h3.186v-5.55a10.847 10.847 0 00-5.411-9.49 10.914 10.914 0 00-10.948 0 10.847 10.847 0 00-5.412 9.49v5.55H25v-5.55c.05-4.204 3.482-7.586 7.699-7.586s7.649 3.382 7.698 7.586v5.55z" fill="#231F20"/><path d="M32.411 43.67c-.955 0-1.73-.773-1.73-1.725v-4.072a.388.388 0 00-.182-.319 4.024 4.024 0 01-1.477-5.041 3.994 3.994 0 012.8-2.263 4.04 4.04 0 014.597 2.37 4.02 4.02 0 01-1.52 4.934.388.388 0 00-.18.32v4.067c-.001.953-.776 1.725-1.732 1.725l-.576.003z" fill="#6DCC6D"/><path d="M32.988 44.38h-.577a2.442 2.442 0 01-2.444-2.435v-3.892a4.735 4.735 0 01-1.6-5.83 4.68 4.68 0 013.306-2.668 4.754 4.754 0 015.37 2.714 4.728 4.728 0 01-1.612 5.784v3.892a2.442 2.442 0 01-2.443 2.436zm-.297-13.51a3.295 3.295 0 00-3.016 1.93 3.322 3.322 0 001.213 4.158c.314.2.504.546.506.918v4.069c0 .56.456 1.013 1.017 1.014h.577a1.017 1.017 0 001.017-1.014v-4.072c.001-.372.19-.718.504-.92a3.306 3.306 0 001.373-3.721 3.32 3.32 0 00-3.191-2.366v.004z" fill="#231F20"/><g><path d="M14.115 27.466s-5.12 3.963-9.398 3.963v10.045a6.179 6.179 0 002.292 5.025c1.5 1.105 5.972 4.048 6.167 4.172l.94.618.938-.618c.19-.124 4.667-3.067 6.166-4.172a6.18 6.18 0 002.293-5.025V31.429c-4.273 0-9.398-3.963-9.398-3.963z" fill="#6DCC6D"/><path d="M14.115 52a.707.707 0 01-.392-.118l-.94-.616c-1.131-.745-4.834-3.19-6.197-4.196a6.884 6.884 0 01-2.582-5.595V31.428c0-.392.319-.71.712-.71 3.977 0 8.913-3.776 8.959-3.814a.717.717 0 01.873 0c.05.038 4.986 3.814 8.959 3.814.394 0 .713.318.713.71v10.047a6.884 6.884 0 01-2.582 5.595c-1.424 1.05-5.406 3.674-6.185 4.19l-.949.622a.712.712 0 01-.389.117zM5.43 32.107v9.367a5.471 5.471 0 002.003 4.452c1.37 1.009 5.333 3.615 6.107 4.132l.576.378.546-.359c.487-.319 4.711-3.102 6.136-4.147a5.471 5.471 0 002.003-4.452v-9.367c-3.582-.313-7.407-2.843-8.685-3.757-1.279.905-5.103 3.44-8.686 3.753z" fill="#231F20"/></g><g fill="#231F20"><path d="M13.407 42.658a.707.707 0 01-.503-.213l-3.13-3.12a.71.71 0 01.315-1.198.715.715 0 01.693.193l2.625 2.618 4.612-4.598a.715.715 0 01.99.017.71.71 0 01.019.988l-5.12 5.104a.708.708 0 01-.501.21z"/></g></g></g></svg><view id="safety" viewBox="128.35999999999999 114.22 22.71 26.22"/><svg id="atComponente_1_1" width="22.71" height="26.22" data-name="Componente 1 – 1" viewBox="-1 -1 22.71 26.22" x="128.35999999999999" y="114.22" xmlns="http://www.w3.org/2000/svg"><defs><clipPath id="atclip-path"><path id="atRectángulo_131" d="M0 0h20.71v24.217H0z" class="atcls-1" data-name="Rectángulo 131"/></clipPath><style>.atcls-1{fill:none}.atcls-2{clip-path:url(#atclip-path)}.atcls-3{fill:#28a5b9}.atcls-4{fill:#003466}.atcls-5{fill:#fff}.atcls-6{fill:#e1ebf0}.atcls-7{fill:#b3d1d7}.atcls-8{fill:#6ea3a8}</style></defs><g id="atGrupo_119" data-name="Grupo 119"><g id="atGrupo_118" class="atcls-2" data-name="Grupo 118"><path id="atTrazado_275" d="M2251.586 855.012a12.223 12.223 0 01-2.926 4.559 15.322 15.322 0 01-5.719 3.388 1.648 1.648 0 01-.236.065 1.825 1.825 0 01-.32.034h-.021a1.8 1.8 0 01-.341-.034 1.742 1.742 0 01-.235-.064 15.3 15.3 0 01-5.725-3.386 12.2 12.2 0 01-2.926-4.558c-1.182-3.207-1.115-6.741-1.061-9.58v-.044c.011-.235.018-.48.021-.753a2.567 2.567 0 012.417-2.515 9.961 9.961 0 006.779-2.857l.016-.014a1.551 1.551 0 012.106 0l.016.014a9.959 9.959 0 006.779 2.857 2.567 2.567 0 012.417 2.515c0 .274.011.52.021.753v.019c.054 2.845.121 6.385-1.065 9.6zm0 0" class="atcls-3" data-name="Trazado 275" transform="translate(-2232.009 -838.84)"/><path id="atTrazado_276" d="M2257.726 855.012a12.223 12.223 0 01-2.926 4.559 15.322 15.322 0 01-5.719 3.388 1.648 1.648 0 01-.236.065 1.819 1.819 0 01-.32.034V838.84a1.55 1.55 0 011.032.412l.016.015a9.959 9.959 0 006.779 2.857 2.567 2.567 0 012.417 2.515c0 .274.011.52.021.753v.019c.054 2.845.121 6.385-1.065 9.6zm0 0" class="atcls-4" data-name="Trazado 276" transform="translate(-2238.149 -838.84)"/></g></g><path id="atTrazado_277" d="M2250.94 854.557a6.043 6.043 0 01-6.014 6.035h-.021a6.035 6.035 0 110-12.071h.021a6.042 6.042 0 016.014 6.035zm0 0" class="atcls-5" data-name="Trazado 277" transform="translate(-2234.55 -842.449)"/><path id="atTrazado_278" d="M2254.539 854.557a6.043 6.043 0 01-6.014 6.035v-12.07a6.042 6.042 0 016.014 6.035zm0 0" class="atcls-6" data-name="Trazado 278" transform="translate(-2238.149 -842.449)"/><path id="atTrazado_279" d="M2249.423 856.037l-2.719 2.719-.587.587a.711.711 0 01-1.006 0l-1.263-1.263a.71.71 0 011-1l.761.76 2.8-2.8a.711.711 0 011 1zm0 0" class="atcls-7" data-name="Trazado 279" transform="translate(-2236.328 -844.798)"/><path id="atTrazado_280" d="M2251.243 856.037l-2.719 2.719v-2.01l1.714-1.714a.71.71 0 011 1zm0 0" class="atcls-8" data-name="Trazado 280" transform="translate(-2238.149 -844.798)"/></svg><view id="serious-icon" viewBox="176.34 116 45.34 45.34"/><svg width="45.34" height="45.34" viewBox="-1 -1 45.34 45.34" x="176.34" y="116" xmlns="http://www.w3.org/2000/svg"><defs><style>.aucls-1{fill:#ffc10e}.aucls-2{fill:#333}</style></defs><g id="auGroup_195" data-name="Group 195" transform="translate(-410 -261)"><path id="auPath_378" d="M453.34 282.67A21.67 21.67 0 11431.67 261a21.67 21.67 0 0121.67 21.67zm0 0" class="aucls-1" data-name="Path 378"/><path id="auPath_379" d="M518.983 358.814a3.4 3.4 0 11-3.4-3.4 3.4 3.4 0 013.4 3.4zm0 0" class="aucls-2" data-name="Path 379" transform="translate(-90.496 -83.619)"/><path id="auPath_380" d="M631.565 358.814a3.4 3.4 0 11-3.4-3.4 3.4 3.4 0 013.4 3.4zm0 0" class="aucls-2" data-name="Path 380" transform="translate(-190.209 -83.619)"/><path id="auPath_381" d="M487.811 509.008h23.7a.856.856 0 000-1.711h-23.7a.856.856 0 000 1.711zm0 0" class="aucls-2" data-name="Path 381" transform="translate(-68.183 -218.143)"/></g></svg><view id="smile-icon" viewBox="234.34 174 45.64 45.64"/><svg width="45.64" height="45.64" viewBox="-1 -1 45.64 45.64" x="234.34" y="174" xmlns="http://www.w3.org/2000/svg"><defs><style>.avcls-1{fill:#ffc10e}.avcls-2{fill:#fff}.avcls-3{fill:#cccbcb}.avcls-4{fill:#333}</style></defs><g id="avGroup_122" data-name="Group 122" transform="translate(-60 -61)"><path id="avPath_281" d="M103.637 82.819A21.818 21.818 0 1181.819 61a21.818 21.818 0 0121.818 21.819zm0 0" class="avcls-1" data-name="Path 281"/><path id="avPath_282" d="M125.113 250.7a14.323 14.323 0 0028.647 0zm0 0" class="avcls-2" data-name="Path 282" transform="translate(-57.619 -167.867)"/><path id="avPath_283" d="M194.184 250.7v12.827a14.277 14.277 0 001.722.72V250.7zm0 0" class="avcls-3" data-name="Path 283" transform="translate(-118.74 -167.867)"/><path id="avPath_284" d="M286.656 250.7v13.676a14.232 14.232 0 001.722-.667V250.7zm0 0" class="avcls-3" data-name="Path 284" transform="translate(-200.569 -167.867)"/><path id="avPath_285" d="M157.118 148.876a5.2 5.2 0 00-5.086-5.087c-2.871-.155-4.945 2.442-5.087 5.087-.06 1.11 1.663 1.1 1.722 0a3.366 3.366 0 016.728 0c.059 1.1 1.783 1.11 1.722 0zm0 0" class="avcls-4" data-name="Path 285" transform="translate(-76.937 -73.255)"/><path id="avPath_286" d="M264.962 148.876a5.2 5.2 0 00-5.087-5.087c-2.871-.155-4.944 2.442-5.086 5.087-.06 1.11 1.663 1.1 1.722 0a3.366 3.366 0 016.728 0c.059 1.1 1.783 1.11 1.722 0zm0 0" class="avcls-4" data-name="Path 286" transform="translate(-172.369 -73.255)"/></g></svg><view id="top-pick-bg" viewBox="0 0 176.34 37.5"/><svg id="awComponente_21_1" width="176.34" height="37.5" data-name="Componente 21 – 1" viewBox="-1 -1 176.34 37.5" xmlns="http://www.w3.org/2000/svg"><defs><style>.awcls-1{fill:#ff5100}.awcls-2{fill:#cc3a00}</style></defs><path id="awRectángulo_18" d="M0 0h166.453v35.499H0z" class="awcls-1" data-name="Rectángulo 18" transform="translate(3.944)"/><path id="awTrazado_2" d="M974 2943l3.944 12.622H974z" class="awcls-2" data-name="Trazado 2" transform="translate(-803.603 -2943)"/><path id="awTrazado_3" d="M761.944 2943L758 2955.622h3.944z" class="awcls-2" data-name="Trazado 3" transform="translate(-758 -2943)"/></svg><view id="track" viewBox="58 220.73000000000002 58 58"/><svg width="58" height="58" viewBox="-1 -1 58 58" x="58" y="220.73000000000002" xmlns="http://www.w3.org/2000/svg"><g fill="none" fill-rule="evenodd"><path fill="none" d="M0 0h56v56H0z"/><g fill-rule="nonzero"><path d="M38.694 41.099V14.777h5.75l-10.04-10.23-10.041 10.23h5.75v26.322" fill="#55ACD5"/><path fill="#6DCC6D" d="M18.969 51.442h-7.34V37.124h7.34v3.021"/><path d="M18.969 51.996h-7.34a.553.553 0 01-.553-.554V37.124c0-.306.248-.554.553-.554h7.34c.304 0 .552.248.552.554v3.021a.553.553 0 11-1.105 0v-2.468H12.18v13.21h6.789a.554.554 0 010 1.109z" fill="#231F20"/><path fill="#6DCC6D" d="M31.708 51.442h-7.34V33.631h7.34v3.03"/><path d="M31.708 51.996h-7.34a.554.554 0 01-.553-.554V33.631c0-.306.248-.554.553-.554h7.34c.305 0 .552.248.552.554v3.03a.554.554 0 01-1.105 0v-2.476h-6.236v16.707h6.79a.554.554 0 010 1.108v-.004z" fill="#231F20"/><path fill="#6DCC6D" d="M44.448 51.442h-7.34V22.654h7.34v2.79"/><path d="M44.448 51.996h-7.34a.553.553 0 01-.552-.554V22.654a.554.554 0 01.552-.555h7.34a.551.551 0 01.552.555v2.79a.553.553 0 11-1.104 0v-2.24h-6.237v27.681h6.789a.554.554 0 010 1.109v.002z" fill="#231F20"/><path fill="#6DCC6D" d="M18.968 48.127V43.09"/><path d="M18.969 48.68a.553.553 0 01-.553-.553V43.09a.553.553 0 111.105 0v5.037a.553.553 0 01-.552.554z" fill="#231F20"/><g><path fill="#6DCC6D" d="M31.708 48.127V38.93"/><path d="M31.708 48.68a.551.551 0 01-.553-.553V38.93a.554.554 0 011.105 0v9.197a.553.553 0 01-.552.554z" fill="#231F20"/></g><g><path fill="#6DCC6D" d="M44.448 48.127v-20.17"/><path d="M44.448 48.68a.553.553 0 01-.552-.553v-20.17a.553.553 0 111.104 0v20.17a.553.553 0 01-.552.554z" fill="#231F20"/></g><g fill="#231F20"><path d="M30.118 31.171a.554.554 0 01-.553-.553V15.33h-5.198a.552.552 0 01-.395-.941l10.041-10.23a.566.566 0 01.788 0l10.04 10.23a.555.555 0 01-.393.941h-5.199v4.173a.553.553 0 11-1.104 0v-4.73c0-.305.247-.553.552-.553h4.433l-8.723-8.886-8.723 8.886h4.433c.305 0 .552.248.552.554v15.84a.555.555 0 01-.551.557z"/></g><g><path d="M19.48 16.456l1.603 3.257a.804.804 0 00.607.442l3.586.522a.806.806 0 01.445 1.377l-2.594 2.535a.807.807 0 00-.231.715l.612 3.58a.802.802 0 01-1.17.853l-3.207-1.69a.81.81 0 00-.75 0l-3.206 1.69a.802.802 0 01-1.17-.853l.613-3.58a.81.81 0 00-.232-.715l-2.595-2.535a.809.809 0 01.447-1.377l3.585-.522a.802.802 0 00.606-.442l1.603-3.257a.805.805 0 011.448 0z" fill="#F5C84C"/><path d="M22.715 30.382c-.22 0-.437-.055-.632-.158l-3.207-1.69a.255.255 0 00-.235 0l-3.207 1.69c-.458.24-1.012.2-1.43-.104a1.363 1.363 0 01-.54-1.33l.613-3.581a.253.253 0 00-.072-.224L11.41 22.45a1.363 1.363 0 01.753-2.322l3.584-.522a.253.253 0 00.19-.138l1.604-3.258a1.357 1.357 0 012.435 0l1.603 3.258a.253.253 0 00.19.137l3.585.523a1.364 1.364 0 01.753 2.322l-2.594 2.535a.254.254 0 00-.073.224l.612 3.58c.068.396-.042.8-.3 1.108a1.358 1.358 0 01-1.037.485zm-3.956-2.987c.22 0 .436.054.63.157l3.208 1.69a.253.253 0 00.367-.267l-.613-3.58c-.076-.441.07-.892.39-1.205l2.595-2.535a.249.249 0 00.064-.259.243.243 0 00-.204-.173l-3.585-.522a1.356 1.356 0 01-1.022-.747l-1.603-3.257a.247.247 0 00-.227-.141.242.242 0 00-.227.14l-1.604 3.258c-.197.403-.58.682-1.022.747l-3.585.522a.24.24 0 00-.203.173.245.245 0 00.064.26l2.594 2.534c.32.313.465.763.39 1.205l-.612 3.58a.246.246 0 00.1.249.247.247 0 00.266.019l3.207-1.69c.195-.104.412-.158.632-.158z" fill="#231F20"/></g></g></g></svg><view id="twitter" viewBox="140.82999999999998 67.08 18.68 15.59"/><svg width="18.68" height="15.59" viewBox="-1 -1 18.68 15.59" x="140.82999999999998" y="67.08" xmlns="http://www.w3.org/2000/svg"><path d="M6.223 13.593c-2.8 0-5.069-.482-6.089-1.3a.393.393 0 01-.113-.424.4.4 0 01.368-.255 6.942 6.942 0 003.567-.906A3.413 3.413 0 01.87 8.301a.308.308 0 01.113-.367.4.4 0 01.4-.029 2.267 2.267 0 001.359.34A5.558 5.558 0 01.278 5.186a.349.349 0 01.141-.368.34.34 0 01.4.028 2.309 2.309 0 001.161.509A3.829 3.829 0 011.159.712l.17-.34.283.283a10.318 10.318 0 006.314 3.257v-.113A3.743 3.743 0 0111.551.004a5.892 5.892 0 012.35.821c.028 0 .057.028.057 0a20.618 20.618 0 002.038-.793.3.3 0 01.34.057.294.294 0 01.057.34 3.89 3.89 0 01-.708 1.217l.566-.2a.34.34 0 01.425.424 2.808 2.808 0 01-1.388 1.728v.085c-.004 5.467-4.081 9.91-9.065 9.91zM.984 12.149a12.627 12.627 0 005.239.878c4.672 0 8.495-4.191 8.495-9.344v-.482l.17-.056a2 2 0 001.048-.991l-1.1.368a.281.281 0 01-.368-.142.341.341 0 01.084-.4A4.509 4.509 0 0015.6.791c-.566.227-1.076.425-1.5.566a.651.651 0 01-.51-.056 5.2 5.2 0 00-2.038-.737 3.176 3.176 0 00-3.059 3.229v.792l-.34-.057a11.175 11.175 0 01-6.654-3.171c-.849 2.152.906 3.653 1.5 4.078l.708.509h-.878a4.277 4.277 0 01-1.755-.311A5.117 5.117 0 004.047 8.21l-.085.567a5.644 5.644 0 00-.679.027 4.467 4.467 0 01-1.642-.141c.566 1.076 1.557 1.529 3.171 1.529h.85l-.708.51a6.814 6.814 0 01-3.97 1.448zm-.481-.312zm.566-3.455zM.474 5.267zm14.441-2.86zm1.218-.736zm.056-1.133zM15.85.227z" data-name="Trazado 4"/></svg><view id="us-sportsbooks" viewBox="116 220.73000000000002 58 58"/><svg width="58" height="58" viewBox="-1 -1 58 58" x="116" y="220.73000000000002" xmlns="http://www.w3.org/2000/svg"><g fill="none" fill-rule="evenodd"><path fill="none" d="M0 0h56v56H0z"/><g fill-rule="nonzero"><path d="M38.098 25.143c.081.146-.047.454-.155.747a.407.407 0 00.062.392c.088.11.226.166.364.148a.878.878 0 01.834.38l.64.946c.055.08.073.181.049.276l-.178.69a.299.299 0 00.063.27c.064.074.16.111.257.1.255-.033.497-.135.7-.295l1.388-1.093.012-.01 1.84-1.726a.205.205 0 00.036-.048l.76-1.426a.334.334 0 01.214-.167l2.316-.607a.186.186 0 00.128-.12l1.001-2.832a.335.335 0 01.35-.222l1.255.127c.112.012.21.08.262.18l1.136 2.2a.34.34 0 01-.067.402l-1.794 1.726a.187.187 0 00-.057.152l.157 1.873a.341.341 0 01-.129.297l-1.855 1.442a.19.19 0 00-.072.134l-.106 1.434a.34.34 0 01-.16.263l-.725.446a.19.19 0 00-.085.123l-.343 1.692a.192.192 0 00.017.124l.93 1.815a.342.342 0 01-.039.371l-1.612 1.966-.007.009-2.545 3.518a.19.19 0 00-.02.184l1.132 2.708a.294.294 0 01.019.06l.737 3.402a.342.342 0 01-.12.338.35.35 0 01-.221.073h-1.43a.333.333 0 01-.28-.156l-1.487-2.32a.345.345 0 01-.044-.107l-.256-1.039a.187.187 0 00-.14-.138l-1.831-.403h-.017l-2.454-.306a.18.18 0 00-.118.024l-1.413.847a.29.29 0 01-.053.025l-1.493.572a.33.33 0 01-.145.02l-3.242-.257a.185.185 0 00-.124.036l-2.215 1.628a.192.192 0 00-.077.153l.006 1.932a.337.337 0 01-.453.317l-1.967-.755a.33.33 0 01-.182-.166l-1.311-2.686a.19.19 0 00-.09-.088l-1.38-.621a.184.184 0 00-.196.028l-.576.495a.33.33 0 01-.49-.063l-1.286-1.85a.179.179 0 00-.063-.056l-2.551-1.402a.18.18 0 00-.089-.024h-2.696a.327.327 0 01-.175-.05l-3.207-2.008a.19.19 0 00-.062-.024l-2.15-.432a.32.32 0 01-.187-.108l-2.258-2.64a.351.351 0 01-.064-.109L5.33 33.22a.218.218 0 01-.013-.05l-.427-2.468v-.011l-.347-2.52a.348.348 0 01.011-.145l.63-2.115.015-.042 1.655-4.27a.188.188 0 00.011-.082L6.731 19.4a.339.339 0 01.15-.308.33.33 0 01.34-.015l1.044.56a.185.185 0 00.26-.093l.164-.398a.335.335 0 01.39-.197l4.06 1.034h.015l4.694.814h.01l5.453.647h.016l5.69.186c.041 0 .082.01.12.025l.987.417a.183.183 0 00.067.014l.866.016a.363.363 0 01.112.021l.989.376a.22.22 0 00.058.012l1.109.043c.115.004.22.069.278.17a.342.342 0 01.004.329l-.075.138a.19.19 0 00.024.214c.052.06.135.08.207.05l.867-.34a.332.332 0 01.374.093l.525.613a.185.185 0 00.19.057l1.23-.344a.337.337 0 01.28.049l.87 1.561z" fill="#6DCC6D"/><path d="M27.32 48.998a.857.857 0 01-.314-.058l-1.963-.748a.875.875 0 01-.476-.431l-1.255-2.568-1.057-.477-.405.349a.868.868 0 01-1.28-.165l-1.238-1.782-2.398-1.323h-2.606a.879.879 0 01-.458-.132l-3.153-1.974-2.087-.415a.873.873 0 01-.493-.29l-2.258-2.64a.893.893 0 01-.165-.293l-.892-2.656a.761.761 0 01-.035-.138l-.427-2.46-.352-2.553a.903.903 0 01.029-.377l.63-2.116c0-.014.024-.07.03-.083l1.624-4.196-.13-2.04a.888.888 0 01.4-.8.868.868 0 01.888-.036l.698.374.013-.033a.87.87 0 011.021-.518l4.062 1.034 4.668.81 5.435.64 5.66.183c.107.003.21.026.308.067l.927.39.798.015c.1.002.197.021.29.055l.937.356 1.052.041a.88.88 0 01.823.702l.265-.108a.868.868 0 01.98.247l.377.44 1.012-.284a.875.875 0 01.733.125c.068.047.124.109.164.181l.874 1.568c.136.325.12.695-.045 1.006.45.016.866.247 1.12.622l.64.947c.145.212.19.477.126.726l-.059.227.047-.034 1.375-1.085 1.783-1.676.732-1.374a.88.88 0 01.552-.43l2.133-.56.938-2.655a.879.879 0 01.912-.582l1.256.128c.293.03.552.207.688.47l1.128 2.19a.898.898 0 01-.174 1.051l-1.67 1.602.142 1.7a.888.888 0 01-.336.776l-1.731 1.346-.096 1.272a.889.889 0 01-.419.69l-.592.365-.286 1.414.872 1.701a.892.892 0 01-.107.971l-1.613 1.967-2.412 3.336 1.055 2.521a.87.87 0 01.05.163l.736 3.394a.891.891 0 01-.175.753.871.871 0 01-.695.325h-1.43a.87.87 0 01-.736-.407L40.8 45.424a.928.928 0 01-.113-.262l-.204-.828-1.615-.356-2.3-.286-1.31.785a.963.963 0 01-.147.07l-1.476.567a.862.862 0 01-.384.055l-3.107-.248-1.963 1.443.006 1.748a.89.89 0 01-.256.628.871.871 0 01-.62.26l.008-.002zM25.5 47.2l1.611.614-.005-1.629c0-.236.11-.457.3-.596l2.215-1.628a.707.707 0 01.483-.14l3.2.255 1.43-.549 1.397-.837a.715.715 0 01.46-.097l2.454.306c.019 0 .054.009.072.013l1.825.401a.73.73 0 01.551.54l.247 1.004 1.407 2.196h1.072l-.678-3.127-1.126-2.69a.745.745 0 01.083-.721l2.545-3.517a.407.407 0 01.033-.042l1.52-1.853-.868-1.692a.741.741 0 01-.066-.487l.341-1.689c.04-.2.162-.375.335-.482l.634-.39.1-1.327a.739.739 0 01.282-.526l1.766-1.372-.149-1.76a.735.735 0 01.224-.595l1.682-1.612-1.012-1.96-.983-.1-.947 2.678a.73.73 0 01-.502.464l-2.228.585-.718 1.346a.764.764 0 01-.145.19l-1.84 1.725-.042.038-1.387 1.097c-.28.22-.614.36-.967.405a.83.83 0 01-.73-.28.85.85 0 01-.18-.768l.153-.598-.59-.868a.339.339 0 00-.32-.146.923.923 0 01-.854-.355.956.956 0 01-.143-.922l.031-.082c.032-.088.082-.216.107-.305l-.671-1.205-1.042.291a.72.72 0 01-.746-.227l-.427-.5-.731.287a.722.722 0 01-.75-.138.74.74 0 01-.217-.739l-.798-.03a.74.74 0 01-.227-.047l-.96-.363-.83-.016a.705.705 0 01-.264-.055l-.954-.402-5.654-.184-.062-.006-5.452-.647-.053-.009-4.681-.812-.054-.011-3.888-.99-.096.23a.731.731 0 01-.426.41.72.72 0 01-.587-.043l-.717-.386.112 1.746a.754.754 0 01-.049.315l-1.655 4.27-.616 2.072.34 2.475.427 2.446.874 2.6L8.91 38.2l2.08.415a.705.705 0 01.243.096l3.156 1.976h2.638c.12 0 .24.03.346.089l2.551 1.41c.1.053.184.13.249.223l1.153 1.66.404-.347a.725.725 0 01.767-.108l1.38.622c.154.07.28.192.355.346l1.27 2.617z" fill="#231F20"/><path d="M20.241 12.654a19.503 19.503 0 00-3.362 3.4c-4.16 5.58-4.916 11.629-3.244 16.295.279.778.885 1.39 1.655 1.673 4.615 1.689 10.6.927 16.122-3.28a19.533 19.533 0 003.362-3.398c4.16-5.58 4.916-11.63 3.244-16.297a2.776 2.776 0 00-1.655-1.672c-4.615-1.69-10.6-.927-16.122 3.279z" fill="#55ACD5"/><path d="M20.1 35.401a14.47 14.47 0 01-4.995-.863 3.31 3.31 0 01-1.979-2c-1.872-5.226-.63-11.51 3.321-16.81a20.06 20.06 0 013.461-3.502l.008-.006c5.244-3.99 11.463-5.248 16.632-3.356a3.31 3.31 0 011.98 2c1.872 5.227.63 11.512-3.321 16.812a20.06 20.06 0 01-3.462 3.5 19.46 19.46 0 01-11.646 4.225zm.47-22.313a18.943 18.943 0 00-3.264 3.302c-3.726 4.996-4.908 10.892-3.162 15.773.223.625.71 1.118 1.33 1.344 4.825 1.765 10.662.57 15.611-3.201a18.945 18.945 0 003.262-3.298c3.726-4.998 4.908-10.892 3.162-15.774A2.224 2.224 0 0036.18 9.89c-4.825-1.767-10.659-.57-15.61 3.198z" fill="#232323"/><path d="M12.841 26.136a19.102 19.102 0 008.285 8.374 16.391 16.391 0 003.903-.728c-5.566-1.568-9.915-5.964-11.468-11.59a16.986 16.986 0 00-.72 3.944z" fill="#6DCC6D"/><path d="M21.126 35.058a.529.529 0 01-.244-.06 19.64 19.64 0 01-8.524-8.615.544.544 0 01-.057-.279 17.53 17.53 0 01.747-4.073.542.542 0 011.045.024c1.502 5.433 5.703 9.68 11.079 11.198.234.06.4.272.406.517a.546.546 0 01-.383.535c-1.308.413-2.66.667-4.029.755l-.04-.002zm-7.735-9.035a18.564 18.564 0 007.848 7.932 15.297 15.297 0 001.842-.245 17.368 17.368 0 01-9.448-9.55 15.77 15.77 0 00-.247 1.863h.005z" fill="#232323"/><path d="M38.813 17.03a19.095 19.095 0 00-8.286-8.375c-1.325.085-2.635.33-3.902.73 5.566 1.567 9.916 5.963 11.467 11.589.394-1.281.636-2.605.721-3.944z" fill="#6DCC6D"/><path d="M38.092 21.52h-.012a.542.542 0 01-.512-.41c-1.502-5.435-5.703-9.682-11.08-11.2a.546.546 0 01-.404-.517.547.547 0 01.382-.534 17.084 17.084 0 014.028-.755.535.535 0 01.277.057 19.631 19.631 0 018.525 8.617.564.564 0 01.057.28 17.67 17.67 0 01-.747 4.072.543.543 0 01-.514.39zm-9.52-12.067a17.378 17.378 0 019.448 9.55c.118-.615.199-1.237.243-1.862a18.549 18.549 0 00-7.849-7.932c-.618.045-1.233.128-1.841.246v-.002z" fill="#232323"/><path d="M31.6 17.007L21.497 27.222a1.013 1.013 0 01-1.426-.017 1.04 1.04 0 01-.018-1.442l10.105-10.215c.256-.271.637-.381.996-.287.359.094.639.377.732.74a1.04 1.04 0 01-.284 1.006z" fill="#E0EBFC"/><path d="M20.775 28.07a1.56 1.56 0 01-1.447-.974 1.59 1.59 0 01.341-1.722l10.105-10.215c.395-.399.97-.555 1.51-.409.539.146.96.572 1.104 1.117a1.59 1.59 0 01-.404 1.525L21.879 27.606c-.292.297-.69.464-1.104.464zm10.109-12.277a.475.475 0 00-.34.143L20.44 26.149a.49.49 0 00.011.674c.183.185.478.19.667.012l10.106-10.214a.484.484 0 00-.34-.827z" fill="#231F20"/><path d="M24.992 26.379a.98.98 0 01-1.395 0l-2.711-2.74a1.005 1.005 0 01.01-1.4.98.98 0 011.385-.01l2.711 2.74a1 1 0 010 1.41zM27.88 23.46a.98.98 0 01-1.396 0l-2.711-2.74a1.005 1.005 0 010-1.41.98.98 0 011.396 0l2.71 2.74a1 1 0 010 1.41zM30.767 20.543a.98.98 0 01-1.395 0l-2.711-2.74a1.005 1.005 0 01-.267-.97c.09-.348.36-.62.704-.711a.98.98 0 01.958.27l2.711 2.74c.386.39.386 1.021 0 1.41z" fill="#6DCC6D"/><g fill="#231F20"><path d="M24.294 27.218a1.51 1.51 0 01-1.08-.452l-2.71-2.74a1.557 1.557 0 01.002-2.186 1.517 1.517 0 012.163.003l2.71 2.74a1.553 1.553 0 010 2.185c-.287.29-.678.453-1.085.45zm-2.71-4.734a.445.445 0 00-.415.275.453.453 0 00.095.493l2.711 2.74c.176.17.454.17.63 0a.454.454 0 000-.636l-2.711-2.74a.44.44 0 00-.31-.132z"/></g><g fill="#231F20"><path d="M27.182 24.299c-.405 0-.794-.162-1.08-.451l-2.711-2.74a1.556 1.556 0 010-2.185 1.517 1.517 0 012.16 0l2.711 2.74a1.557 1.557 0 010 2.185c-.286.29-.675.452-1.08.45zm-2.71-4.735a.446.446 0 00-.416.276.454.454 0 00.096.493l2.71 2.74a.443.443 0 00.631 0 .454.454 0 000-.637l-2.71-2.739a.44.44 0 00-.311-.133z"/></g><g fill="#231F20"><path d="M30.07 21.382a1.507 1.507 0 01-1.081-.453l-2.711-2.74a1.558 1.558 0 010-2.184 1.552 1.552 0 012.16 0l2.711 2.74c.596.603.596 1.58 0 2.184-.285.29-.674.454-1.08.453zm-2.707-4.736a.446.446 0 00-.415.276.454.454 0 00.095.493l2.71 2.74c.178.17.455.17.631 0a.454.454 0 000-.637l-2.71-2.74a.445.445 0 00-.311-.132z"/></g><g fill="#F5C84C"><path d="M41.598 26.024c-.22-1.52-2.482-2.715-5.246-2.715-2.765 0-5.027 1.196-5.245 2.715h-.023v5.335c0 1.634 2.36 2.958 5.268 2.958s5.268-1.324 5.268-2.958v-5.335h-.022z"/></g><g fill="#231F20"><path d="M36.352 32.975c-3.201 0-5.7-1.492-5.7-3.396v-1.774c0-.242.193-.438.432-.438.24 0 .434.196.434.438v1.774c0 1.366 2.213 2.521 4.834 2.521 2.62 0 4.835-1.155 4.835-2.521v-1.774a.44.44 0 01.21-.398.43.43 0 01.445 0 .44.44 0 01.21.398v1.774c0 1.904-2.503 3.396-5.7 3.396z"/></g><g fill="#231F20"><path d="M36.352 34.755c-3.201 0-5.7-1.492-5.7-3.396v-1.775c0-.242.193-.438.432-.438.24 0 .434.196.434.438v1.775c0 1.366 2.213 2.52 4.834 2.52 2.62 0 4.835-1.154 4.835-2.52v-1.775a.44.44 0 01.21-.397.43.43 0 01.445 0 .44.44 0 01.21.397v1.775c0 1.904-2.503 3.396-5.7 3.396z"/></g><g fill="#231F20"><path d="M36.352 31.318c-3.201 0-5.7-1.491-5.7-3.396v-1.774c0-.242.193-.438.432-.438.24 0 .434.196.434.438v1.774c0 1.367 2.213 2.522 4.834 2.522 2.62 0 4.835-1.155 4.835-2.522v-1.774a.44.44 0 01.21-.397.43.43 0 01.445 0 .44.44 0 01.21.397v1.774c0 1.901-2.503 3.396-5.7 3.396z"/></g><g fill="#231F20"><path d="M36.352 29.662c-3.201 0-5.7-1.492-5.7-3.395 0-1.904 2.503-3.396 5.7-3.396 3.196 0 5.7 1.491 5.7 3.396 0 1.904-2.503 3.395-5.7 3.395zm0-5.917c-2.62 0-4.834 1.155-4.834 2.522 0 1.366 2.213 2.52 4.834 2.52 2.62 0 4.835-1.154 4.835-2.52 0-1.367-2.214-2.522-4.835-2.522z"/></g><g fill="#231F20"><path d="M36.547 28.098a2.475 2.475 0 01-1.067-.216.44.44 0 01-.067-.767.43.43 0 01.443-.021c.42.154.877.172 1.309.053.243-.04.468-.153.647-.324-.238-.259-.829-.201-1.435-.1-.747.124-1.785.216-2.29-.463a.807.807 0 01-.122-.763 1.69 1.69 0 011.28-.911 2.998 2.998 0 011.848.094.44.44 0 01.077.753.429.429 0 01-.43.045 2.155 2.155 0 00-1.289-.043 1.23 1.23 0 00-.647.324c.106.108.44.267 1.436.1.834-.139 1.769-.23 2.288.463a.807.807 0 01.123.764 1.686 1.686 0 01-1.28.91c-.27.068-.546.102-.824.102z"/></g><g fill="#231F20"><path d="M37.549 28.38a.432.432 0 01-.346-.173l-2.484-3.309a.44.44 0 01.084-.612.43.43 0 01.606.084l2.484 3.307c.1.133.117.31.044.46a.432.432 0 01-.388.242z"/></g></g></g></svg><view id="visa-logo" viewBox="128.35999999999999 98.55 44.15 15.67"/><svg id="baGroup_13" width="44.15" height="15.67" data-name="Group 13" viewBox="-1 -1 44.15 15.67" x="128.35999999999999" y="98.55" xmlns="http://www.w3.org/2000/svg"><defs><style>.bacls-1{fill:#005ca8}.bacls-2{fill:#f6a723}</style></defs><g id="baGroup_12" data-name="Group 12"><path id="baPath_19" d="M1101.918 727.177h-3.439l2.149-13.209h3.439z" class="bacls-1" data-name="Path 19" transform="translate(-1083.648 -713.731)"/><path id="baPath_20" d="M1091.617 713.968l-3.279 9.085-.388-1.956-1.157-5.939a1.473 1.473 0 00-1.631-1.19h-5.42l-.064.223a12.852 12.852 0 013.6 1.51l2.987 11.476h3.583l5.472-13.209z" class="bacls-1" data-name="Path 20" transform="translate(-1079.679 -713.731)"/><path id="baPath_21" d="M1126.671 727.177h3.158l-2.753-13.209h-2.765a1.581 1.581 0 00-1.588.984l-5.128 12.225h3.584l.717-1.962h4.372zm-3.784-4.672l1.807-4.943 1.016 4.943z" class="bacls-1" data-name="Path 21" transform="translate(-1087.684 -713.731)"/><path id="baPath_22" d="M1115.315 717.081l.491-2.837a9.922 9.922 0 00-3.092-.576c-1.707 0-5.76.746-5.76 4.373 0 3.413 4.756 3.455 4.756 5.247s-4.266 1.472-5.674.342l-.512 2.965a9.635 9.635 0 003.882.746c2.347 0 5.887-1.216 5.887-4.522 0-3.435-4.8-3.754-4.8-5.248s3.35-1.301 4.822-.49z" class="bacls-1" data-name="Path 22" transform="translate(-1085.135 -713.668)"/></g><path id="baPath_23" d="M1087.951 721.1l-1.157-5.939a1.473 1.473 0 00-1.631-1.19h-5.42l-.064.223a13.334 13.334 0 015.1 2.563 10.3 10.3 0 013.172 4.343z" class="bacls-2" data-name="Path 23" transform="translate(-1079.679 -713.731)"/></svg></svg>